<svg width="250" height="37" viewBox="0 0 250 37" fill="none" xmlns="http://www.w3.org/2000/svg">
<g clip-path="url(#clip0_7451_362)">
<path d="M46.6445 9.65341V8.9622H49.4121C50.2261 8.9622 50.8201 8.82246 51.195 8.54254C51.5694 8.26261 51.7569 7.84736 51.7569 7.29589C51.7569 6.75279 51.5694 6.36178 51.195 6.1233C50.8201 5.88481 50.2261 5.76535 49.4121 5.76535H46.6445V5.24694H49.7506C50.2017 5.24694 50.6025 5.28397 50.9529 5.35803C51.3034 5.43208 51.5996 5.55155 51.8413 5.71597C52.0829 5.8804 52.2665 6.09244 52.3911 6.35164C52.5163 6.61085 52.5786 6.92559 52.5786 7.29589C52.5786 7.78961 52.4616 8.21148 52.2281 8.56105C51.9947 8.91062 51.6442 9.18041 51.1768 9.36952C50.7094 9.55863 50.1212 9.65341 49.4121 9.65341H46.6445ZM45.9316 9.65341V1.26013H46.6929V9.65341H45.9316ZM46.2941 5.56786V5.07413H49.0617C49.8757 5.07413 50.4716 4.93836 50.8503 4.66681C51.2291 4.39527 51.4184 3.98795 51.4184 3.44485C51.4184 2.90176 51.2291 2.51692 50.8503 2.29077C50.4716 2.06463 49.8757 1.95134 49.0617 1.95134H46.2941V1.26013H49.0617C50.1173 1.26013 50.9069 1.4391 51.4304 1.79705C51.9544 2.155 52.2162 2.7003 52.2162 3.43251C52.2162 3.72874 52.1735 3.99191 52.0891 4.22246C52.0047 4.45301 51.8815 4.65227 51.7205 4.8211C51.5594 4.98994 51.3662 5.12968 51.1404 5.24077C50.9151 5.35185 50.6571 5.43429 50.3671 5.48763C50.0771 5.54097 49.7587 5.56786 49.4121 5.56786H46.2941Z" fill="#191919"/>
<path d="M54.645 9.65341V1.26013H55.4183V9.65341H54.645ZM55.0074 9.65341V8.9622H60.4214V9.65341H55.0074ZM55.0074 5.41974V4.72853H59.5273C59.6481 4.72853 59.7468 4.75718 59.8235 4.81493C59.8998 4.87268 59.9381 4.95908 59.9381 5.07413C59.9381 5.18126 59.8998 5.26545 59.8235 5.32717C59.7468 5.38888 59.6481 5.41974 59.5273 5.41974H55.0074ZM55.0074 1.95134V1.26013H60.4214V1.95134H55.0074Z" fill="#191919"/>
<path d="M67.2982 9.65341C67.1937 9.38186 67.127 9.07725 67.0987 8.74002C67.0705 8.40279 67.0446 8.05895 67.0201 7.70938C66.9961 7.35981 66.9377 7.03889 66.8451 6.74662C66.7526 6.45435 66.5934 6.21984 66.3676 6.04307C66.1418 5.86629 65.8077 5.77769 65.3647 5.77769H62.3191V5.321H65.5215C66.0455 5.321 66.4563 5.38492 66.7545 5.51231C67.0527 5.63971 67.2742 5.81692 67.419 6.04307C67.5642 6.26921 67.663 6.52665 67.7153 6.81451C67.7675 7.10236 67.8039 7.40918 67.8241 7.73407C67.8442 8.05895 67.8783 8.38604 67.9267 8.71534C67.9751 9.04463 68.0676 9.35718 68.2047 9.65341H67.2982ZM61.8962 9.65341V1.26013H62.6695V9.65341H61.8962ZM62.2826 5.56786V5.08648H65.0502C65.8643 5.08648 66.4563 4.95467 66.8269 4.6915C67.1975 4.42833 67.383 4.02894 67.383 3.49422C67.383 2.9595 67.1975 2.56849 66.8269 2.32163C66.4563 2.07477 65.8643 1.95134 65.0502 1.95134H62.2826V1.26013H65.0502C66.114 1.26013 66.9055 1.44527 67.4252 1.81557C67.9449 2.18586 68.2047 2.73292 68.2047 3.45719C68.2047 3.94254 68.0858 4.34193 67.848 4.65447C67.6103 4.96701 67.2579 5.19757 66.7905 5.34568C66.3235 5.4938 65.7435 5.56786 65.0502 5.56786H62.2826Z" fill="#191919"/>
<path d="M70.9598 1.26001V9.6533H70.1865V1.26001H70.9598ZM70.6698 5.32088L74.8152 1.44516C74.912 1.35479 74.9964 1.28867 75.0688 1.24767C75.1417 1.20667 75.2179 1.18596 75.2984 1.18596C75.4034 1.18596 75.4839 1.21681 75.54 1.27853C75.5966 1.34024 75.6249 1.41651 75.6249 1.50687C75.6249 1.58931 75.6028 1.66513 75.5583 1.73522C75.5141 1.80531 75.4557 1.8732 75.3833 1.93888L71.4795 5.51837L71.5039 5.06168L75.9873 9.6533H74.8996L70.6698 5.32088Z" fill="#191919"/>
<path d="M79.8907 9.8013C79.3509 9.8013 78.8437 9.73562 78.3681 9.60381C77.893 9.472 77.4779 9.28686 77.1236 9.04837V8.33247C77.5905 8.6124 78.0498 8.81606 78.5009 8.94345C78.9525 9.07085 79.4118 9.13477 79.8787 9.13477C80.6927 9.13477 81.2829 8.97652 81.6492 8.65956C82.0159 8.34261 82.199 7.97056 82.199 7.54252C82.199 7.20529 82.1065 6.93154 81.9215 6.7217C81.7359 6.51187 81.4924 6.34304 81.1899 6.21564C80.8879 6.08824 80.5556 5.97715 80.1932 5.88238C79.8303 5.7876 79.4679 5.68489 79.1054 5.5738C78.743 5.46271 78.4103 5.32297 78.1083 5.15414C77.8062 4.9853 77.5627 4.76533 77.3772 4.49378C77.1921 4.22223 77.0991 3.87266 77.0991 3.44462C77.0991 2.9919 77.2099 2.59075 77.4313 2.24117C77.6533 1.8916 77.9812 1.61564 78.4165 1.41419C78.8518 1.21273 79.3835 1.11178 80.012 1.11178C80.5839 1.11178 81.0552 1.18981 81.4257 1.3463C81.7963 1.50279 82.0945 1.70028 82.3198 1.93877C82.4085 2.02914 82.479 2.12171 82.5317 2.21649C82.584 2.31126 82.6099 2.41618 82.6099 2.53123C82.6099 2.63835 82.5821 2.72476 82.5255 2.79044C82.4689 2.85612 82.3965 2.88918 82.3079 2.88918C82.1789 2.88918 82.0662 2.83364 81.9694 2.72255C81.873 2.61146 81.7561 2.48186 81.6189 2.33375C81.4823 2.18563 81.2906 2.05603 81.0451 1.94494C80.7992 1.83385 80.455 1.77831 80.012 1.77831C79.3106 1.77831 78.7751 1.9348 78.4045 2.24734C78.034 2.55989 77.8484 2.94693 77.8484 3.40759C77.8484 3.73689 77.941 4.00403 78.1265 4.20989C78.312 4.41576 78.5556 4.58018 78.8576 4.70361C79.1596 4.82704 79.4923 4.93416 79.8547 5.02453C80.2172 5.1149 80.5796 5.21365 80.9425 5.32077C81.3049 5.42789 81.6372 5.56763 81.9392 5.74043C82.2417 5.91323 82.4852 6.13938 82.6703 6.4193C82.8558 6.69922 82.9483 7.06114 82.9483 7.50549C82.9483 7.9829 82.8294 8.39419 82.5921 8.73979C82.3544 9.0854 82.0077 9.34857 81.5528 9.52975C81.0974 9.71093 80.5436 9.8013 79.8907 9.8013Z" fill="#191919"/>
<path d="M90.4893 9.65341V1.26013H91.2631V9.65341H90.4893ZM84.8093 9.65341V1.26013H85.5831V9.65341H84.8093ZM85.1722 5.43208V4.74087H90.8278V5.43208H85.1722Z" fill="#191919"/>
<path d="M94.5862 1.26013H93.825V9.65341H94.5862V1.26013Z" fill="#191919"/>
<path d="M102.551 9.65341C102.446 9.38186 102.379 9.07725 102.351 8.74002C102.323 8.40279 102.297 8.05895 102.273 7.70938C102.248 7.35981 102.19 7.03889 102.097 6.74662C102.005 6.45435 101.845 6.21984 101.62 6.04307C101.394 5.86629 101.06 5.77769 100.617 5.77769H97.5715V5.321H100.774C101.297 5.321 101.708 5.38492 102.006 5.51231C102.305 5.63971 102.526 5.81692 102.671 6.04307C102.816 6.26921 102.915 6.52665 102.967 6.81451C103.02 7.10236 103.056 7.40918 103.076 7.73407C103.096 8.05895 103.131 8.38604 103.179 8.71534C103.227 9.04463 103.32 9.35718 103.457 9.65341H102.551ZM97.1482 9.65341V1.26013H97.922V9.65341H97.1482ZM97.5351 5.56786V5.08648H100.303C101.116 5.08648 101.708 4.95467 102.079 4.6915C102.45 4.42833 102.635 4.02894 102.635 3.49422C102.635 2.9595 102.45 2.56849 102.079 2.32163C101.708 2.07477 101.116 1.95134 100.303 1.95134H97.5351V1.26013H100.303C101.366 1.26013 102.157 1.44527 102.677 1.81557C103.197 2.18586 103.457 2.73292 103.457 3.45719C103.457 3.94254 103.338 4.34193 103.1 4.65447C102.863 4.96701 102.51 5.19757 102.043 5.34568C101.575 5.4938 100.995 5.56786 100.303 5.56786H97.5351Z" fill="#191919"/>
<path d="M105.439 9.65341V1.26013H106.212V9.65341H105.439ZM105.802 9.65341V8.9622H111.216V9.65341H105.802ZM105.802 5.41974V4.72853H110.321C110.442 4.72853 110.541 4.75718 110.617 4.81493C110.694 4.87268 110.732 4.95908 110.732 5.07413C110.732 5.18126 110.694 5.26545 110.617 5.32717C110.541 5.38888 110.442 5.41974 110.321 5.41974H105.802ZM105.802 1.95134V1.26013H111.216V1.95134H105.802Z" fill="#191919"/>
<path d="M122.987 1.53145C123.075 1.39964 123.166 1.29693 123.259 1.22287C123.351 1.14881 123.462 1.11178 123.591 1.11178C123.752 1.11178 123.881 1.1735 123.978 1.29693C124.074 1.42036 124.123 1.6055 124.123 1.85237V9.65318H123.398V1.70425L123.675 1.74128L119.99 7.35737L116.303 1.74128L116.582 1.70425V9.65318H115.856V1.85237C115.856 1.59713 115.907 1.41022 116.007 1.29076C116.108 1.17129 116.247 1.11178 116.424 1.11178C116.561 1.11178 116.676 1.14881 116.769 1.22287C116.862 1.29693 116.948 1.39964 117.029 1.53145L120.292 6.49336H119.724L122.987 1.53145Z" fill="#191919"/>
<path d="M126.129 5.57997C126.129 4.70758 126.292 3.93614 126.618 3.26565C126.944 2.59515 127.412 2.06837 128.02 1.68573C128.628 1.3031 129.351 1.11178 130.189 1.11178C131.011 1.11178 131.72 1.28855 132.316 1.64253C132.912 1.99652 133.372 2.49024 133.694 3.1237C134.016 3.75716 134.177 4.49775 134.177 5.34545C134.177 6.20947 134.014 6.97694 133.688 7.64743C133.361 8.31793 132.896 8.84471 132.292 9.22735C131.688 9.60998 130.962 9.8013 130.117 9.8013C129.303 9.8013 128.596 9.62629 127.996 9.27672C127.395 8.92714 126.934 8.43519 126.612 7.80172C126.29 7.16826 126.129 6.42767 126.129 5.57997ZM126.95 5.55528C126.95 6.27118 127.081 6.89847 127.343 7.4376C127.605 7.97673 127.973 8.39419 128.449 8.69042C128.924 8.98666 129.484 9.13477 130.129 9.13477C130.806 9.13477 131.386 8.97431 131.869 8.65339C132.352 8.33247 132.721 7.88812 132.975 7.32034C133.229 6.75256 133.356 6.10235 133.356 5.37014C133.356 4.65424 133.225 4.02695 132.963 3.48782C132.701 2.94869 132.332 2.52903 131.857 2.22883C131.382 1.92863 130.822 1.77831 130.177 1.77831C129.5 1.77831 128.922 1.93877 128.443 2.25969C127.963 2.58061 127.595 3.02496 127.337 3.59274C127.079 4.16052 126.95 4.8147 126.95 5.55528Z" fill="#191919"/>
<path d="M136.183 9.6533V1.80311C136.183 1.59724 136.226 1.44296 136.31 1.34024C136.395 1.23753 136.513 1.18596 136.667 1.18596C136.803 1.18596 136.92 1.22695 137.017 1.30939C137.114 1.39182 137.215 1.50687 137.319 1.65499L142.371 8.94974L142.008 9.01146V1.26001H142.709V9.6533H141.948L136.63 1.96357L136.884 1.88951V9.6533H136.183Z" fill="#191919"/>
<path d="M145.271 9.65341V1.26013H146.045V9.65341H145.271ZM145.634 9.65341V8.9622H151.048V9.65341H145.634ZM145.634 5.41974V4.72853H150.154C150.275 4.72853 150.374 4.75718 150.45 4.81493C150.526 4.87268 150.565 4.95908 150.565 5.07413C150.565 5.18126 150.526 5.26545 150.45 5.32717C150.374 5.38888 150.275 5.41974 150.154 5.41974H145.634ZM145.634 1.95134V1.26013H151.048V1.95134H145.634Z" fill="#191919"/>
<path d="M155.689 5.71597L155.037 5.38271L158.07 1.26013H158.976L155.689 5.71597ZM154.988 9.65341V5.46911H155.737V9.65341H154.988ZM155.025 5.71597L151.749 1.26013H152.656L155.689 5.38271L155.025 5.71597Z" fill="#191919"/>
<path d="M170.384 1.53145C170.473 1.39964 170.564 1.29693 170.656 1.22287C170.749 1.14881 170.86 1.11178 170.988 1.11178C171.15 1.11178 171.278 1.1735 171.375 1.29693C171.472 1.42036 171.521 1.6055 171.521 1.85237V9.65318H170.795V1.70425L171.073 1.74128L167.387 7.35737L163.701 1.74128L163.979 1.70425V9.65318H163.254V1.85237C163.254 1.59713 163.304 1.41022 163.405 1.29076C163.506 1.17129 163.645 1.11178 163.822 1.11178C163.959 1.11178 164.074 1.14881 164.166 1.22287C164.259 1.29693 164.346 1.39964 164.426 1.53145L167.689 6.49336H167.122L170.384 1.53145Z" fill="#191919"/>
<path d="M172.958 9.65318L176.101 1.65488C176.173 1.46576 176.26 1.32779 176.361 1.24138C176.461 1.15498 176.576 1.11178 176.705 1.11178C176.842 1.11178 176.959 1.15498 177.055 1.24138C177.152 1.32779 177.237 1.46576 177.31 1.65488L180.427 9.65318H179.63L176.5 1.50676H176.911L173.768 9.65318H172.958ZM174.626 7.1352V6.44398H178.772V7.1352H174.626Z" fill="#191919"/>
<path d="M181.865 9.6533V1.80311C181.865 1.59724 181.907 1.44296 181.992 1.34024C182.077 1.23753 182.196 1.18596 182.349 1.18596C182.486 1.18596 182.603 1.22695 182.699 1.30939C182.796 1.39182 182.896 1.50687 183.001 1.65499L188.053 8.94974L187.69 9.01146V1.26001H188.391V9.6533H187.63L182.313 1.96357L182.566 1.88951V9.6533H181.865Z" fill="#191919"/>
<path d="M189.83 9.65318L192.972 1.65488C193.044 1.46576 193.131 1.32779 193.231 1.24138C193.332 1.15498 193.447 1.11178 193.576 1.11178C193.713 1.11178 193.83 1.15498 193.926 1.24138C194.023 1.32779 194.108 1.46576 194.18 1.65488L197.298 9.65318H196.501L193.37 1.50676H193.781L190.639 9.65318H189.83ZM191.497 7.1352V6.44398H195.642V7.1352H191.497Z" fill="#191919"/>
<path d="M202.011 9.8013C201.141 9.8013 200.402 9.62629 199.794 9.27672C199.185 8.92714 198.72 8.43342 198.398 7.79555C198.075 7.15768 197.914 6.41092 197.914 5.55528C197.914 4.69127 198.078 3.926 198.404 3.25947C198.73 2.59295 199.212 2.06837 199.848 1.68573C200.484 1.3031 201.262 1.11178 202.181 1.11178C202.608 1.11178 202.986 1.15498 203.317 1.24138C203.647 1.32779 203.935 1.43667 204.181 1.56848C204.427 1.70028 204.626 1.84399 204.779 2.00048C204.883 2.09923 204.966 2.19797 205.027 2.29672C205.087 2.39546 205.117 2.49817 205.117 2.60529C205.117 2.71241 205.087 2.79661 205.027 2.85833C204.966 2.92004 204.892 2.9509 204.803 2.9509C204.674 2.9509 204.553 2.89139 204.44 2.77192C204.328 2.65246 204.189 2.51669 204.023 2.3646C203.858 2.21252 203.631 2.07675 203.341 1.95728C203.051 1.83782 202.66 1.77831 202.169 1.77831C201.395 1.77831 200.754 1.93877 200.247 2.25969C199.739 2.58061 199.361 3.02275 199.111 3.58657C198.861 4.15038 198.736 4.79001 198.736 5.50591C198.736 6.22181 198.859 6.85131 199.105 7.3944C199.351 7.9375 199.715 8.36333 200.199 8.67191C200.682 8.98048 201.286 9.13477 202.011 9.13477C202.946 9.13477 203.655 8.86719 204.138 8.33247C204.622 7.79775 204.871 7.02411 204.888 6.01198H201.927V5.32077H205.685C205.75 6.80193 205.466 7.91898 204.833 8.67191C204.201 9.42484 203.26 9.8013 202.011 9.8013Z" fill="#191919"/>
<path d="M207.498 9.65341V1.26013H208.271V9.65341H207.498ZM207.86 9.65341V8.9622H213.275V9.65341H207.86ZM207.86 5.41974V4.72853H212.38C212.501 4.72853 212.6 4.75718 212.677 4.81493C212.753 4.87268 212.791 4.95908 212.791 5.07413C212.791 5.18126 212.753 5.26545 212.677 5.32717C212.6 5.38888 212.501 5.41974 212.38 5.41974H207.86ZM207.86 1.95134V1.26013H213.275V1.95134H207.86Z" fill="#191919"/>
<path d="M221.879 1.53145C221.968 1.39964 222.059 1.29693 222.151 1.22287C222.244 1.14881 222.355 1.11178 222.484 1.11178C222.645 1.11178 222.774 1.1735 222.87 1.29693C222.967 1.42036 223.015 1.6055 223.015 1.85237V9.65318H222.29V1.70425L222.568 1.74128L218.882 7.35737L215.196 1.74128L215.474 1.70425V9.65318H214.749V1.85237C214.749 1.59713 214.799 1.41022 214.9 1.29076C215.001 1.17129 215.14 1.11178 215.317 1.11178C215.454 1.11178 215.569 1.14881 215.661 1.22287C215.754 1.29693 215.841 1.39964 215.921 1.53145L219.184 6.49336H218.616L221.879 1.53145Z" fill="#191919"/>
<path d="M225.578 9.65341V1.26013H226.351V9.65341H225.578ZM225.94 9.65341V8.9622H231.354V9.65341H225.94ZM225.94 5.41974V4.72853H230.46C230.581 4.72853 230.679 4.75718 230.756 4.81493C230.833 4.87268 230.871 4.95908 230.871 5.07413C230.871 5.18126 230.833 5.26545 230.756 5.32717C230.679 5.38888 230.581 5.41974 230.46 5.41974H225.94ZM225.94 1.95134V1.26013H231.354V1.95134H225.94Z" fill="#191919"/>
<path d="M232.828 9.6533V1.80311C232.828 1.59724 232.87 1.44296 232.955 1.34024C233.04 1.23753 233.158 1.18596 233.311 1.18596C233.448 1.18596 233.565 1.22695 233.662 1.30939C233.759 1.39182 233.859 1.50687 233.964 1.65499L239.016 8.94974L238.653 9.01146V1.26001H239.354V9.6533H238.593L233.275 1.96357L233.529 1.88951V9.6533H232.828Z" fill="#191919"/>
<path d="M243.802 9.65341V1.26013H244.575V9.65341H243.802ZM240.636 1.95134V1.26013H247.742V1.95134H240.636Z" fill="#191919"/>
<path fill-rule="evenodd" clip-rule="evenodd" d="M51.3278 18.7053L45.801 18.7032L45.8019 16.1486L59.7422 16.1538L59.7413 18.7084L54.2139 18.7063L54.2091 31.7393L51.323 31.7382L51.3278 18.7053ZM66.0881 29.8309C65.7579 30.4837 65.3113 30.9852 64.747 31.3354C64.0152 31.7905 63.1949 32.0177 62.2866 32.0173C61.1865 32.0169 60.3084 31.7213 59.6515 31.1303C58.9946 30.5394 58.6663 29.7347 58.6667 28.7164C58.667 27.7969 58.9613 27.0692 59.5495 26.5342C60.1377 25.9989 61.0146 25.6258 62.1795 25.4146L64.3609 25.0359C65.0078 24.9079 65.4328 24.7691 65.6354 24.6202C65.838 24.4709 65.9393 24.2368 65.9394 23.9177L65.9394 23.8595C65.9397 23.2313 65.7514 22.801 65.3743 22.5677C64.9971 22.3348 64.4987 22.2182 63.879 22.218C63.2905 22.2178 62.812 22.2894 62.4444 22.4326C62.0768 22.5757 61.7721 22.744 61.5306 22.9374C61.289 23.1308 61.0646 23.2992 60.8567 23.4423C60.6488 23.5855 60.4053 23.6569 60.1264 23.6568C59.792 23.6566 59.5233 23.564 59.3199 23.3787C59.117 23.1935 59.0154 22.9378 59.0155 22.6112C59.0156 22.3802 59.0731 22.1483 59.1881 21.9156C59.3035 21.6829 59.5012 21.4511 59.7827 21.2211C60.6962 20.4107 62.0593 20.0057 63.8716 20.0064C64.8709 20.0067 65.7218 20.1384 66.4236 20.4018C67.1254 20.6648 67.6641 21.1014 68.0397 21.7121C68.4153 22.3224 68.6024 23.1375 68.602 24.1571L68.6005 28.2264C68.6002 28.9934 68.6491 29.6767 68.7472 30.2758C68.8448 30.8749 68.9673 31.3647 69.1147 31.7448L66.4272 31.7438C66.3207 31.5158 66.2361 31.1865 66.1739 30.7562C66.1327 30.4684 66.1041 30.1602 66.0881 29.8309ZM65.9386 26.0028C65.8442 26.1019 65.6986 26.1966 65.5029 26.2883C65.3067 26.3794 65.0102 26.4697 64.6125 26.559L63.1915 26.849C62.6881 26.948 62.2786 27.1202 61.9621 27.3661C61.6457 27.6124 61.4873 27.9839 61.4871 28.4816C61.4869 28.9736 61.646 29.3598 61.9647 29.6412C62.283 29.9221 62.7059 30.0624 63.2341 30.0626C63.7145 30.0628 64.16 29.9479 64.5709 29.7175C64.9813 29.4876 65.312 29.1562 65.5623 28.7238C65.8127 28.291 65.938 27.7832 65.9382 27.1996L65.9386 26.0028ZM74.3024 26.0182L70.5009 20.2839L73.4459 20.285L76.1071 24.3018L78.7585 20.2869L81.6505 20.288L77.8598 26.0389L81.636 31.7494L78.691 31.7483L76.0464 27.7583L73.3988 31.7464L70.5064 31.7453L74.3024 26.0182ZM95.0596 29.8416C94.7298 30.4948 94.2828 30.9963 93.7189 31.3465C92.9867 31.8016 92.1668 32.0288 91.2585 32.0285C90.1584 32.0281 89.2804 31.7324 88.6234 31.1414C87.9665 30.5505 87.6382 29.7459 87.6386 28.7271C87.6389 27.8076 87.9332 27.0803 88.5214 26.5449C89.1097 26.01 89.9865 25.6365 91.1514 25.4258L93.3328 25.047C93.9798 24.919 94.4048 24.7803 94.6073 24.6314C94.8099 24.482 94.9112 24.248 94.9114 23.9288L94.9114 23.8702C94.9116 23.2424 94.7234 22.8117 94.3462 22.5788C93.9691 22.3459 93.4706 22.2293 92.851 22.2291C92.262 22.2289 91.7839 22.3006 91.4164 22.4437C91.0483 22.5868 90.744 22.7551 90.5025 22.9485C90.261 23.142 90.036 23.3103 89.8281 23.4535C89.6202 23.5967 89.3773 23.668 89.0984 23.6679C88.764 23.6678 88.4948 23.5751 88.2919 23.3899C88.089 23.2047 87.9873 22.9489 87.9874 22.6223C87.9875 22.3913 88.0451 22.1594 88.16 21.9267C88.275 21.694 88.4732 21.4622 88.7541 21.2318C89.6681 20.4214 91.0308 20.0168 92.8435 20.0175C93.8429 20.0179 94.6937 20.1495 95.3955 20.413C96.0974 20.676 96.6361 21.1126 97.0116 21.7233C97.3867 22.3335 97.5743 23.1486 97.5739 24.1683L97.5724 28.2375C97.5721 29.0045 97.6211 29.6878 97.7187 30.287C97.8168 30.8861 97.9393 31.3759 98.0866 31.7559L95.3991 31.7549C95.2921 31.527 95.208 31.1976 95.1459 30.7674C95.1046 30.4795 95.076 30.1709 95.0596 29.8416ZM94.9106 26.0139C94.8156 26.1126 94.6705 26.2078 94.4743 26.2994C94.2786 26.3906 93.9816 26.4808 93.5844 26.5702L92.1634 26.8601C91.66 26.9591 91.2501 27.1314 90.9341 27.3772C90.6176 27.6231 90.4593 27.9951 90.4591 28.4928C90.4589 28.9847 90.6179 29.3709 90.9362 29.6519C91.2544 29.9332 91.6779 30.0736 92.206 30.0738C92.6865 30.0739 93.1319 29.9591 93.5423 29.7287C93.9533 29.4987 94.2834 29.1673 94.5343 28.7345C94.7846 28.3022 94.9099 27.7944 94.9101 27.2107L94.9106 26.0139ZM103.184 25.4412L103.181 31.7578L100.519 31.7568L100.523 20.2954L103.185 20.2964L103.185 21.9583C103.337 21.7212 103.506 21.5074 103.691 21.3171C104.12 20.876 104.608 20.5499 105.155 20.339C105.703 20.128 106.267 20.0224 106.849 20.0227C107.588 20.0229 108.275 20.1898 108.909 20.5238C109.543 20.8572 110.051 21.3816 110.432 22.0963C110.814 22.811 111.005 23.7439 111.004 24.8948L111.002 31.7607L108.34 31.7597L108.342 25.2761C108.342 24.6285 108.234 24.1034 108.018 23.7013C107.802 23.2992 107.511 23.0033 107.145 22.8127C106.78 22.6226 106.377 22.5277 105.937 22.5275C105.468 22.5273 105.022 22.6321 104.601 22.8422C104.179 23.0523 103.837 23.3709 103.576 23.7975C103.314 24.2246 103.184 24.7725 103.184 25.4412ZM121.835 30.0732C121.532 30.5408 121.165 30.9326 120.732 31.2489C120.012 31.7755 119.15 32.0388 118.148 32.0384C117.204 32.038 116.348 31.7962 115.578 31.3123C114.809 30.8284 114.203 30.1392 113.762 29.245C113.321 28.3509 113.1 27.2893 113.1 26.0603C113.101 24.8418 113.319 23.7835 113.757 22.8848C114.194 21.9857 114.803 21.285 115.583 20.7815C116.363 20.2779 117.264 20.0265 118.285 20.0269C119.274 20.0272 120.104 20.2621 120.773 20.7318C121.224 21.0485 121.579 21.4511 121.838 21.94L121.841 15.2602L124.503 15.2612L124.497 31.7657L121.834 31.7647L121.835 30.0732ZM121.837 25.2418C121.837 24.6762 121.716 24.1736 121.472 23.7341C121.228 23.2945 120.896 22.9501 120.475 22.7004C120.054 22.4512 119.567 22.3262 119.014 22.326C118.406 22.3258 117.87 22.4812 117.404 22.7923C116.939 23.1033 116.575 23.5348 116.313 24.0857C116.052 24.6366 115.921 25.2841 115.921 26.0283C115.921 26.7565 116.051 27.394 116.312 27.9403C116.573 28.4865 116.935 28.9094 117.398 29.2085C117.86 29.5075 118.405 29.6572 119.032 29.6574C119.87 29.6577 120.546 29.3882 121.062 28.8488C121.578 28.309 121.836 27.602 121.836 26.7269L121.837 25.2418ZM135.517 28.2326L134.196 31.7697L131.125 31.7685L136.62 17.8242C136.862 17.1922 137.168 16.7149 137.538 16.3923C137.908 16.0698 138.356 15.9086 138.88 15.9088C139.404 15.909 139.85 16.0692 140.217 16.3894C140.585 16.7091 140.89 17.1884 141.132 17.8259L146.595 31.7743L143.514 31.7731L142.192 28.235L135.517 28.2326ZM141.269 25.763L138.855 19.3001L136.441 25.7612L141.269 25.763ZM157.511 22.7383C157.511 23.113 157.4 23.4035 157.177 23.6093C156.955 23.8155 156.67 23.9181 156.32 23.918C155.998 23.9178 155.737 23.834 155.534 23.6664C155.332 23.4988 155.133 23.3083 154.936 23.0949C154.74 22.8814 154.501 22.6914 154.219 22.5237C153.937 22.3561 153.556 22.2722 153.075 22.272C152.152 22.2717 151.427 22.6056 150.897 23.2746C150.368 23.9435 150.103 24.841 150.102 25.9668C150.102 26.7237 150.233 27.3797 150.495 27.9348C150.757 28.4899 151.152 28.9194 151.683 29.2229C152.213 29.5268 152.883 29.6787 153.693 29.679C154.241 29.6792 154.8 29.6062 155.371 29.4605C155.941 29.3144 156.54 29.088 157.168 28.7806L157.167 30.9759C156.711 31.2561 156.169 31.5058 155.543 31.7242C154.917 31.9431 154.156 32.0521 153.261 32.0518C151.391 32.0511 149.919 31.5233 148.844 30.4685C147.769 29.4136 147.232 27.9706 147.232 26.1399C147.233 24.9175 147.473 23.8481 147.953 22.9318C148.434 22.016 149.117 21.3047 150.002 20.7986C150.889 20.2924 151.94 20.0397 153.157 20.0402C153.989 20.0405 154.726 20.1624 155.369 20.406C156.011 20.6496 156.521 20.9698 156.897 21.3662C157.307 21.7852 157.511 22.2428 157.511 22.7383ZM168.977 22.7425C168.977 23.1172 168.866 23.4077 168.644 23.6135C168.422 23.8197 168.137 23.9223 167.787 23.9222C167.465 23.9221 167.204 23.8382 167.001 23.6706C166.799 23.503 166.6 23.3125 166.403 23.0991C166.207 22.8857 165.968 22.6956 165.686 22.528C165.404 22.3604 165.023 22.2765 164.542 22.2763C163.619 22.2759 162.894 22.6098 162.364 23.2788C161.835 23.9478 161.57 24.8452 161.569 25.971C161.569 26.7279 161.7 27.3839 161.961 27.939C162.223 28.4941 162.619 28.9236 163.15 29.2271C163.68 29.531 164.35 29.6829 165.16 29.6832C165.708 29.6834 166.267 29.6105 166.838 29.4648C167.408 29.3186 168.007 29.0923 168.635 28.7848L168.634 30.9801C168.178 31.2603 167.636 31.51 167.01 31.7285C166.384 31.9473 165.623 32.0564 164.728 32.056C162.858 32.0553 161.385 31.5276 160.311 30.4727C159.236 29.4179 158.698 27.9749 158.699 26.1441C158.7 24.9217 158.94 23.8524 159.42 22.9361C159.901 22.0202 160.584 21.309 161.469 20.8028C162.356 20.2966 163.407 20.044 164.624 20.0444C165.456 20.0447 166.193 20.1667 166.836 20.4102C167.478 20.6538 167.988 20.974 168.364 21.3705C168.773 21.7894 168.977 22.2471 168.977 22.7425ZM170.166 26.1483C170.167 24.9193 170.41 23.85 170.896 22.9399C171.381 22.0297 172.068 21.3203 172.956 20.8114C173.844 20.3022 174.888 20.0482 176.089 20.0486C177.248 20.0491 178.264 20.2901 179.137 20.7718C180.01 21.2535 180.692 21.934 181.183 22.8136C181.674 23.6932 181.92 24.7447 181.919 25.9684C181.919 27.1798 181.677 28.2439 181.194 29.1602C180.711 30.076 180.028 30.7886 179.145 31.2974C178.262 31.8062 177.215 32.0606 176.005 32.0602C174.852 32.0598 173.835 31.8187 172.957 31.337C172.078 30.8553 171.393 30.1722 170.902 29.2877C170.411 28.4033 170.166 27.3571 170.166 26.1483ZM172.957 26.1044C172.957 26.8631 173.088 27.5164 173.348 28.0649C173.61 28.6134 173.972 29.0336 174.434 29.3247C174.897 29.6163 175.416 29.7624 175.99 29.7626C176.587 29.7628 177.122 29.6105 177.595 29.3061C178.068 29.0016 178.442 28.5684 178.716 28.0065C178.991 27.4445 179.128 26.7763 179.128 26.0018C179.129 25.2391 178.998 24.5854 178.737 24.0395C178.476 23.4937 178.117 23.0752 177.66 22.7837C177.203 22.4921 176.682 22.3464 176.096 22.3462C175.499 22.346 174.963 22.4983 174.49 22.8032C174.018 23.1076 173.644 23.5386 173.369 24.0957C173.095 24.6524 172.958 25.3224 172.957 26.1044ZM189.224 32.0651C187.568 32.0645 186.29 31.6333 185.388 30.7716C184.488 29.9099 184.037 28.6274 184.038 26.9231L184.04 20.3267L186.703 20.3276L186.701 26.9012C186.7 27.8278 186.923 28.5218 187.368 28.983C187.813 29.4447 188.432 29.6755 189.225 29.6758C190.028 29.6761 190.649 29.4458 191.09 28.9844C191.53 28.5235 191.751 27.8297 191.751 26.9031L191.754 20.3295L194.417 20.3305L194.414 26.927C194.413 28.6312 193.962 29.9134 193.06 30.7744C192.159 31.6355 190.88 32.0657 189.224 32.0651ZM199.823 25.4773L199.821 31.7939L197.158 31.7929L197.162 20.3315L199.825 20.3325L199.825 21.9944C199.977 21.7573 200.146 21.5435 200.331 21.3532C200.76 20.9121 201.248 20.586 201.796 20.3751C202.343 20.1637 202.907 20.0585 203.489 20.0588C204.228 20.059 204.914 20.2259 205.549 20.5599C206.183 20.8934 206.691 21.4177 207.073 22.1324C207.454 22.8471 207.645 23.78 207.644 24.931L207.642 31.7968L204.979 31.7958L204.982 25.3122C204.982 24.6642 204.874 24.1395 204.658 23.7374C204.442 23.3353 204.152 23.039 203.786 22.8488C203.42 22.6587 203.017 22.5638 202.577 22.5636C202.107 22.5635 201.662 22.6682 201.24 22.8783C200.819 23.0884 200.477 23.407 200.216 23.8337C199.954 24.2607 199.823 24.8082 199.823 25.4773ZM216.696 31.6004C216.342 31.7431 215.974 31.858 215.591 31.9447C215.209 32.031 214.8 32.0745 214.365 32.0743C213.285 32.0739 212.455 31.7637 211.876 31.1446C211.297 30.525 211.008 29.6071 211.008 28.3909L211.01 22.6963L210.283 22.6961C209.93 22.6959 209.641 22.5984 209.416 22.4035C209.19 22.2086 209.078 21.9348 209.078 21.583C209.078 21.2757 209.171 21.0082 209.355 20.7799C209.539 20.5521 209.809 20.345 210.166 20.1595L213.675 18.2635L213.674 20.3376L217.159 20.3389L217.158 22.6986L213.674 22.6973L213.672 27.9718C213.671 28.6149 213.798 29.0682 214.051 29.3314C214.305 29.5947 214.673 29.7262 215.156 29.7264C215.417 29.7265 215.672 29.6966 215.919 29.6367C216.166 29.5769 216.425 29.4998 216.697 29.4051L216.696 31.6004ZM219.139 31.801L219.143 20.2938C220.03 20.4929 220.916 20.4932 221.803 20.2947L221.798 31.802L219.139 31.801ZM220.474 18.575C219.939 18.5748 219.534 18.4372 219.259 18.162C218.984 17.8868 218.846 17.5275 218.847 17.0845C218.847 16.6564 218.985 16.3051 219.26 16.0302C219.535 15.7552 219.94 15.6178 220.475 15.618C221.025 15.6182 221.437 15.7559 221.713 16.0311C221.988 16.3062 222.125 16.6576 222.125 17.0857C222.124 17.5287 221.987 17.8879 221.712 18.1629C221.436 18.4379 221.024 18.5752 220.474 18.575ZM227.674 25.4876L227.671 31.8042L225.009 31.8032L225.013 20.3418L227.676 20.3428L227.675 22.0047C227.827 21.7676 227.996 21.5538 228.181 21.3635C228.61 20.9224 229.099 20.5963 229.646 20.3854C230.193 20.174 230.757 20.0688 231.339 20.069C232.079 20.0693 232.765 20.2362 233.399 20.5701C234.033 20.9036 234.541 21.428 234.922 22.1427C235.304 22.8574 235.495 23.7902 235.495 24.9412L235.492 31.8071L232.83 31.8061L232.832 25.3224C232.832 24.6744 232.724 24.1498 232.508 23.7477C232.292 23.3456 232.002 23.0493 231.636 22.8591C231.27 22.669 230.867 22.5741 230.427 22.5739C229.958 22.5737 229.512 22.6785 229.091 22.8886C228.669 23.0987 228.327 23.4173 228.066 23.8439C227.805 24.271 227.674 24.8184 227.674 25.4876ZM243.135 27.4894C242.385 27.4891 241.81 27.5431 241.409 27.651C241.008 27.7593 240.733 27.9011 240.584 28.0769C240.435 28.2523 240.361 28.4405 240.361 28.6407C240.361 28.9197 240.48 29.1203 240.721 29.2421C240.961 29.3643 241.367 29.4253 241.937 29.4255L245.075 29.4266C246.437 29.4271 247.5 29.6858 248.265 30.2032C249.03 30.7201 249.413 31.5675 249.412 32.7454C249.412 34.0291 248.917 35.0045 247.928 35.6711C246.939 36.3372 245.403 36.6704 243.32 36.6696C242.305 36.6692 241.441 36.5904 240.728 36.4337C240.015 36.2769 239.457 36.07 239.053 35.8128C238.781 35.6571 238.574 35.4829 238.433 35.2902C238.292 35.098 238.221 34.8758 238.221 34.6241C238.221 34.3393 238.311 34.1105 238.49 33.9382C238.669 33.7659 238.924 33.6796 239.254 33.6797C239.513 33.6798 239.766 33.7306 240.013 33.8312C240.26 33.9323 240.537 34.0523 240.844 34.1908C241.151 34.3293 241.53 34.4494 241.98 34.5501C242.43 34.6512 242.992 34.7016 243.666 34.7019C244.595 34.7022 245.343 34.5698 245.911 34.3046C246.479 34.039 246.763 33.6168 246.763 33.038C246.763 32.6752 246.614 32.3785 246.318 32.147C246.021 31.9154 245.455 31.7997 244.619 31.7994L241.434 31.7982C240.572 31.7979 239.883 31.6932 239.366 31.4836C238.85 31.2745 238.475 30.9891 238.241 30.6276C238.007 30.266 237.89 29.8599 237.89 29.4094C237.89 28.6918 238.138 28.1078 238.633 27.6579C239.017 27.3084 239.515 27.0662 240.127 26.9311C239.895 26.8243 239.678 26.7017 239.477 26.5641C238.578 25.9479 238.129 25.0476 238.13 23.8631C238.13 23.0506 238.347 22.3621 238.78 21.7985C239.213 21.2344 239.828 20.8057 240.625 20.5124C241.422 20.2196 242.356 20.0731 243.428 20.0735C244.526 20.0739 245.603 20.1201 246.657 20.2122C247.712 20.3043 248.779 20.3506 249.857 20.3509L249.857 22.6287C249.227 22.6285 248.644 22.5974 248.107 22.5355C248.065 22.5306 248.022 22.5253 247.979 22.5204C248.02 22.5985 248.056 22.6787 248.09 22.7616C248.234 23.1178 248.306 23.5168 248.306 23.9585C248.305 24.7057 248.101 25.344 247.692 25.8732C247.284 26.4021 246.695 26.8039 245.926 27.0782C245.157 27.3526 244.226 27.4898 243.135 27.4894ZM243.239 25.8354C243.969 25.8357 244.56 25.6556 245.011 25.2956C245.463 24.9357 245.689 24.4217 245.689 23.753C245.689 23.0887 245.471 22.5847 245.035 22.2421C244.598 21.8994 244.025 21.7277 243.314 21.7274C242.593 21.7272 242.007 21.9055 241.556 22.2628C241.104 22.6202 240.879 23.1358 240.879 23.8099C240.878 24.4689 241.096 24.9711 241.533 25.3164C241.969 25.6622 242.538 25.8352 243.239 25.8354Z" fill="#191919"/>
<path d="M25.5511 27.9067C26.5031 27.657 27.4677 27.5302 28.4184 27.5302C31.8734 27.5305 34.7327 29.0612 35.9779 30.5898C35.9779 30.5898 37.6861 27.9904 38.5755 25.0639C39.3377 22.5577 39.2879 19.7244 39.2879 19.7244L25.1272 26.0797C25.1283 26.127 25.1342 26.1729 25.1342 26.2205C25.1342 26.8731 25.0158 27.4965 24.8088 28.078C25.0449 28.0296 25.2877 27.9757 25.5511 27.9067Z" fill="#191919"/>
<path d="M34.2155 31.7322C34.4158 31.7299 34.5057 31.4811 34.356 31.3486C31.9878 29.2517 28.5802 28.326 25.4992 29.181C19.5361 30.7884 18.5506 26.5814 13.1767 26.552C9.77542 26.5335 6.39463 28.2817 4.99804 31.4289C4.93458 31.5716 5.04199 31.7326 5.19831 31.7322C7.4168 31.726 11.7741 31.7388 13.7144 31.7332H21.6898H25.6575C25.6558 31.7177 32.2707 31.754 34.2155 31.7322Z" fill="#191919"/>
<path d="M12.1271 25.0985L0.0658802 19.6921C0.0658802 19.6921 -0.374759 21.8872 1.28061 26.4929C2.19447 29.0362 3.46279 30.5897 3.46279 30.5897C4.93252 26.6369 9.76554 25.2138 12.1271 25.0985Z" fill="#191919"/>
<path fill-rule="evenodd" clip-rule="evenodd" d="M36.1856 9.25324C36.1856 9.25324 37.4416 10.9689 38.1308 12.9014C38.8811 15.0053 39.1838 17.5708 39.1838 17.5708L24.855 24.4904C24.7326 24.1168 24.5695 23.7622 24.3744 23.4281L36.1856 9.25324Z" fill="#191919"/>
<path d="M26.6826 1.39963L21.9802 21.2228C22.4997 21.4718 22.9736 21.7979 23.3883 22.1885L35.2505 7.83023C35.2505 7.83023 34.1486 6.11881 31.9254 4.35941C29.4847 2.42767 26.6826 1.39963 26.6826 1.39963Z" fill="#191919"/>
<path d="M19.5881 20.6748C19.8974 20.6748 20.1987 20.7063 20.4943 20.755L24.8888 0.776354C24.8888 0.776354 21.3003 0.0491943 19.6768 0.0491943C17.9265 0.0491943 14.3877 0.776354 14.3877 0.776354L18.8456 20.7302C19.089 20.6976 19.3356 20.6748 19.5881 20.6748Z" fill="#191919"/>
<path d="M17.3494 21.1491L12.6964 1.3999C12.6964 1.3999 9.70933 2.39222 7.0049 4.7751C5.36634 6.21926 3.98242 7.82875 3.98242 7.82875L15.9007 22.0865C16.3298 21.7036 16.8163 21.3849 17.3494 21.1491Z" fill="#191919"/>
<path d="M14.8853 23.2912L3.04711 9.25339C3.04711 9.25339 1.64234 11.7837 1.14797 13.1528C0.651007 14.5286 0.169858 17.5073 0.169858 17.5073L14.3448 24.4264C14.482 24.0251 14.6643 23.6451 14.8853 23.2912Z" fill="#191919"/>
</g>
<defs>
<clipPath id="clip0_7451_362">
<rect width="250" height="36.8176" fill="white"/>
</clipPath>
</defs>
</svg>
