<?xml version="1.0" encoding="UTF-8" standalone="no"?>
<!DOCTYPE svg PUBLIC "-//W3C//DTD SVG 1.1//EN" "http://www.w3.org/Graphics/SVG/1.1/DTD/svg11.dtd">
<svg width="100%" height="100%" viewBox="0 0 1440 171" version="1.1" xmlns="http://www.w3.org/2000/svg" xmlns:xlink="http://www.w3.org/1999/xlink" xml:space="preserve" xmlns:serif="http://www.serif.com/" style="fill-rule:evenodd;clip-rule:evenodd;stroke-linejoin:round;stroke-miterlimit:2;">
    <g id="Artboard1" transform="matrix(1,0,0,1,0,-77.666663)">
        <rect x="0" y="77.667" width="1440" height="170.333" style="fill:none;"/>
        <clipPath id="_clip1">
            <rect x="0" y="77.667" width="1440" height="170.333"/>
        </clipPath>
        <g clip-path="url(#_clip1)">
            <g transform="matrix(1,0,0,1,0,0.666663)">
                <clipPath id="_clip2">
                    <rect x="-507" y="0" width="2417" height="187"/>
                </clipPath>
                <g clip-path="url(#_clip2)">
                    <g transform="matrix(0.81769,0,0,0.81769,36.002661,81.220304)">
                        <path d="M507.16,47.464C527.234,48.059 549.054,47.644 569.28,46.823C592.178,45.679 614.2,42.31 636.753,39.096C673.991,33.381 702.924,42.548 736.187,55.685C752.097,61.635 768.937,60.873 788.159,60.823C816.323,60.708 846.472,60.531 872.724,60.453C899.871,59.655 928.534,63.743 954.864,71.612C972.676,76.734 990.095,80.719 1008.66,80.045C1019.07,79.628 1028.88,77.892 1039.34,76.849C1058,74.782 1078.14,73.695 1096.97,76.294C1110.45,77.939 1120.09,79.624 1132.41,80.739C1150.8,82.071 1169.62,83.315 1188.11,84.848C1203.89,85.881 1219.11,85.294 1234.93,85.64C1246.94,85.85 1259.02,86.707 1271.1,86.945C1287.12,87.294 1303.99,85.803 1316.25,82.888C1326.78,80.569 1336.11,76.665 1346.85,75.287C1352.88,74.44 1362.48,74.02 1370.36,73.997C1402.94,74.362 1447.17,73.001 1478.59,74.688C1497.28,76.409 1512.16,79.405 1532.01,80.182C1558.84,80.883 1585.51,83.36 1612.31,82.849C1634.07,82.444 1655.81,78.63 1677.48,78.111C1690.73,77.749 1703.23,78.797 1716.34,79.427C1749.66,81.399 1781.86,70.882 1815.2,68.919C1832.84,67.581 1850.62,67.274 1868.2,69.036C1892.51,71.32 1914.36,76.592 1937.8,79.659C1957.71,82.361 1977.44,83.025 1997.48,86.014C2017,88.824 2036.25,93.848 2054.81,99.51C2076.05,106.203 2098.33,159.463 2119.82,165.218C2127.33,167.582 2131.55,170.212 2129.47,173.701C2128.2,175.598 2124.23,177.129 2118.63,178.12C2108.92,179.755 2097.71,179.81 2087.29,178.574C2066.78,175.615 2046.48,176.621 2026.35,179.734C2009.7,183.055 1993.07,187.3 1975.95,190.099C1952.51,193.591 1929.34,187.957 1905.61,189.993C1889.1,191.215 1872.59,193.442 1855.98,194.952C1832.89,197.418 1810.48,197.869 1787.73,195.136C1766.57,192.639 1748.41,189.56 1726.77,189.352C1702.04,189.064 1676.06,189.299 1651.23,188.973C1626.14,188.603 1601.43,187.55 1576.16,187.557C1533.95,186.758 1492.21,190.871 1450.13,191.544C1439.85,191.758 1429.65,191.564 1419.43,190.934C1408.11,190.305 1396.05,187.884 1384.12,186.445C1362.95,183.997 1341.41,182.988 1320.38,182.153C1254.04,178.595 1187.66,184.19 1121.61,184.77C1097.41,185.917 1072.87,185.125 1049.47,181.631C1029.17,178.193 1008.5,176.65 987.765,176.777C964.265,177.536 940.463,178.608 916.942,177.165C877.274,174.238 836.276,168.27 795.993,170.492C782.974,171.175 768.264,172.789 754.883,173.075C723.789,173.67 692.515,170.354 661.459,169.965C643.091,169.242 624.856,170.145 606.512,170.324C578.278,169.908 551.704,171.595 523.903,172.591C486.356,172.41 447.88,179.152 410.992,171.947C393.805,169.707 377.832,162.965 360.327,162.198C339.411,160.522 317.366,162.41 296.197,161.662C284.58,161.113 272.99,160.772 261.329,161.056C241.638,161.812 222.119,161.265 202.703,158.9C186.423,157.365 170.471,156.914 154.126,157.568C147.982,158.09 142.008,158.712 135.729,158.887C122.39,159.682 108.627,157.996 95.604,158.405C85.74,158.472 77.392,159.521 67.704,162.365C58.406,165.227 48.777,167.327 38.749,167.613C27.032,168.242 15.64,167.932 4.174,167.54C-14.748,166.948 -31.702,162.895 -50.133,161.526C-64.86,160.173 -80.263,160.916 -95.205,161.44C-107.533,161.359 -121.976,160.929 -133.005,159.657C-142.198,158.507 -150.236,155.151 -158.711,153.173C-167.724,150.703 -177.435,149.952 -187.244,149.694C-194.708,149.213 -201.279,147.353 -208.84,145.674C-219.224,143.419 -230.019,141.866 -240.171,138.976C-248.54,136.751 -256.22,134.821 -261.367,132.248C-265.662,130.407 -272.807,122.829 -274.03,126.833C-280.845,149.15 -281.885,128.493 -285.38,129.437C-285.906,129.52 -286.373,129.482 -286.659,129.265C-287.463,128.653 -286.813,78.035 -285.201,75.017C-281.744,68.947 -275.391,63.058 -271.44,57.022C-267.368,50.059 -270.426,47.079 -271.844,41.727C-272.805,38.969 -274.03,35.693 -272.942,32.601C-271.781,28.827 -268.963,24.762 -265.655,21.881C-259.444,16.56 -253.038,15.447 -243.273,15.823C-229.267,16.409 -214.252,19.3 -200.297,21.461C-192.983,22.58 -185.708,23.5 -178.39,23.892C-157.196,25.156 -135.494,20.353 -113.957,22.282C-97.16,23.477 -80.761,27.911 -64.909,33.12C-31.57,43.697 2.35,56.905 38.233,58.211C66.129,58.378 93.999,51.905 121.871,50.56C142.079,49.003 163.57,48.771 182.465,44.954C213.302,38.118 245.12,24.21 275.536,15.725C296.471,9.571 318.519,9.114 340.436,10.95C370.741,13.494 401.009,17.116 429.399,26.538C454.464,34.844 479.515,46.756 506.804,47.451L507.156,47.47L507.16,47.464Z" style="fill:rgb(245,240,232);fill-rule:nonzero;"/>
                    </g>
                    <g transform="matrix(0.81769,0,0,0.81769,36.002661,81.220304)">
                        <path d="M507.16,47.464C527.234,48.059 549.054,47.644 569.28,46.823C592.178,45.679 614.2,42.31 636.753,39.096C673.991,33.381 702.924,42.548 736.187,55.685C752.097,61.635 768.937,60.873 788.159,60.823C816.323,60.708 846.472,60.531 872.724,60.453C899.871,59.655 928.534,63.743 954.864,71.612C972.676,76.734 990.095,80.719 1008.66,80.045C1019.07,79.628 1028.88,77.892 1039.34,76.849C1058,74.782 1078.14,73.695 1096.97,76.294C1110.45,77.939 1120.09,79.624 1132.41,80.739C1150.8,82.071 1169.62,83.315 1188.11,84.848C1203.89,85.881 1219.11,85.294 1234.93,85.64C1246.94,85.85 1259.02,86.707 1271.1,86.945C1287.12,87.294 1303.99,85.803 1316.25,82.888C1326.78,80.569 1336.11,76.665 1346.85,75.287C1352.88,74.44 1362.48,74.02 1370.36,73.997C1402.94,74.362 1447.17,73.001 1478.59,74.688C1497.28,76.409 1512.16,79.405 1532.01,80.182C1558.84,80.883 1585.51,83.36 1612.31,82.849C1634.07,82.444 1655.81,78.63 1677.48,78.111C1690.73,77.749 1703.23,78.797 1716.34,79.427C1749.66,81.399 1781.86,70.882 1815.2,68.919C1832.84,67.581 1850.62,67.274 1868.2,69.036C1892.51,71.32 1914.36,76.592 1937.8,79.659C1957.71,82.361 1977.44,83.025 1997.48,86.014C2017,88.824 2036.25,93.848 2054.81,99.51C2076.05,106.203 2098.33,159.463 2119.82,165.218C2127.33,167.582 2131.55,170.212 2129.47,173.701C2128.2,175.598 2124.23,177.129 2118.63,178.12C2108.92,179.755 2097.71,179.81 2087.29,178.574C2066.78,175.615 2046.48,176.621 2026.35,179.734C2009.7,183.055 1993.07,187.3 1975.95,190.099C1952.51,193.591 1929.34,187.957 1905.61,189.993C1889.1,191.215 1872.59,193.442 1855.98,194.952C1832.89,197.418 1810.48,197.869 1787.73,195.136C1766.57,192.639 1748.41,189.56 1726.77,189.352C1702.04,189.064 1676.06,189.299 1651.23,188.973C1626.14,188.603 1601.43,187.55 1576.16,187.557C1533.95,186.758 1492.21,190.871 1450.13,191.544C1439.85,191.758 1429.65,191.564 1419.43,190.934C1408.11,190.305 1396.05,187.884 1384.12,186.445C1362.95,183.997 1341.41,182.988 1320.38,182.153C1254.04,178.595 1187.66,184.19 1121.61,184.77C1097.41,185.917 1072.87,185.125 1049.47,181.631C1029.17,178.193 1008.5,176.65 987.765,176.777C964.265,177.536 940.463,178.608 916.942,177.165C877.274,174.238 836.276,168.27 795.993,170.492C782.974,171.175 768.264,172.789 754.883,173.075C723.789,173.67 692.515,170.354 661.459,169.965C643.091,169.242 624.856,170.145 606.512,170.324C578.278,169.908 551.704,171.595 523.903,172.591C486.356,172.41 447.88,179.152 410.992,171.947C393.805,169.707 377.832,162.965 360.327,162.198C339.411,160.522 317.366,162.41 296.197,161.662C284.58,161.113 272.99,160.772 261.329,161.056C241.638,161.812 222.119,161.265 202.703,158.9C186.423,157.365 170.471,156.914 154.126,157.568C147.982,158.09 142.008,158.712 135.729,158.887C122.39,159.682 108.627,157.996 95.604,158.405C85.74,158.472 77.392,159.521 67.704,162.365C58.406,165.227 48.777,167.327 38.749,167.613C27.032,168.242 15.64,167.932 4.174,167.54C-14.748,166.948 -31.702,162.895 -50.133,161.526C-64.86,160.173 -80.263,160.916 -95.205,161.44C-107.533,161.359 -121.976,160.929 -133.005,159.657C-142.198,158.507 -150.236,155.151 -158.711,153.173C-167.724,150.703 -177.435,149.952 -187.244,149.694C-194.708,149.213 -201.279,147.353 -208.84,145.674C-219.224,143.419 -230.019,141.866 -240.171,138.976C-248.54,136.751 -256.22,134.821 -261.367,132.248C-265.662,130.407 -272.807,122.829 -274.03,126.833C-280.845,149.15 -281.885,128.493 -285.38,129.437C-285.906,129.52 -286.373,129.482 -286.659,129.265C-287.463,128.653 -286.813,78.035 -285.201,75.017C-281.744,68.947 -275.391,63.058 -271.44,57.022C-267.368,50.059 -270.426,47.079 -271.844,41.727C-272.805,38.969 -274.03,35.693 -272.942,32.601C-271.781,28.827 -268.963,24.762 -265.655,21.881C-259.444,16.56 -253.038,15.447 -243.273,15.823C-229.267,16.409 -214.252,19.3 -200.297,21.461C-192.983,22.58 -185.708,23.5 -178.39,23.892C-157.196,25.156 -135.494,20.353 -113.957,22.282C-97.16,23.477 -80.761,27.911 -64.909,33.12C-31.57,43.697 2.35,56.905 38.233,58.211C66.129,58.378 93.999,51.905 121.871,50.56C142.079,49.003 163.57,48.771 182.465,44.954C213.302,38.118 245.12,24.21 275.536,15.725C296.471,9.571 318.519,9.114 340.436,10.95C370.741,13.494 401.009,17.116 429.399,26.538C454.464,34.844 479.515,46.756 506.804,47.451L507.156,47.47L507.16,47.464Z" style="fill:rgb(122,139,111);fill-opacity:0.12;fill-rule:nonzero;"/>
                    </g>
                </g>
            </g>
            <g transform="matrix(0.81769,0,0,0.81769,36.002661,81.886967)">
                <path d="M1910.96,99.528C1910.93,96.577 1910.7,93.649 1909.94,90.936C1908.55,86.377 1904.99,85.263 1899.29,85.098C1877.34,84.981 1854.52,85.271 1832.95,88.795C1817.99,90.526 1803.24,96.38 1788.48,98.055C1778.86,98.966 1769.04,98.021 1759.33,99.058C1744.45,100.484 1730.63,100.767 1716.32,103.459C1709.5,104.495 1702.76,104.424 1695.86,102.843C1691.91,101.997 1687.64,100.693 1684.11,100.152C1672.47,98.637 1660.85,102.571 1649.18,100.372C1638.86,99.154 1628.86,97.516 1618.68,98.361C1611.46,99.183 1605.31,102.655 1598.66,104.969C1589.9,108.544 1580.91,107.24 1571.15,105.168C1561.88,103.618 1552.49,101.587 1543.05,101.681C1532.67,102.34 1522.98,106.352 1512.82,107.138C1497.57,107.245 1483.64,117.585 1468.97,118.45C1454.34,119.19 1440.4,113.284 1425.65,114.847C1414.06,115.671 1402.78,117.157 1391.82,119.974C1387.04,121.171 1382.22,122.369 1377.3,122.821C1366.26,123.949 1354.24,123.03 1342.84,123.233C1324.23,123.503 1305.67,119.087 1287.44,116.204C1261.89,113.999 1228.73,115.652 1202.93,115.014C1183.33,115.069 1167.97,113.184 1149.17,113.559C1125.29,113.684 1101.81,112.659 1078.16,115.677C1061.35,117.468 1044.65,116.12 1027.8,117.685C1006.14,120.213 985.605,111.982 964.244,110.243C949.234,109.166 937.222,109.907 923.265,107.925C902.214,106.516 875.161,107.113 853.097,107.479C832.448,107.44 809.54,110.813 788.235,110.009C776.766,109.386 765.256,110.764 753.7,111.355C735.057,111.826 717.111,111.706 698.905,108.372C686.039,106.287 673.467,102.11 660.207,102.601C648.59,103.105 636.842,103.771 625.406,103.513C616.8,103.824 608.456,104.448 599.756,104.702C586.349,104.635 573.018,101.888 560.239,100.547C539.93,99.254 518.671,96.176 498.316,95.728C477.539,96.786 452.396,101.071 431.829,99.779C420.637,98.202 408.768,97.847 397.3,97.804C386.76,97.591 376.481,95.646 365.935,95.689C342.56,96.599 319.798,97.18 296.592,96.68C285.06,96.886 273.729,98.62 261.961,99.065C244.596,99.487 229.431,98.232 212.512,101.261C201.69,103.033 190.724,101.841 179.802,101.412C174.822,101.239 169.476,101.075 164.724,100.13C149.751,96.377 136.477,91.617 121.409,88.261C110.296,84.878 98.809,88.907 87.564,89.227C80.067,89.542 72.504,88.221 64.863,87.937C58.484,87.82 51.925,87.901 45.693,87.687C38.016,87.697 30.293,87.241 22.486,87.65C17.599,87.876 12.947,88.876 8.178,88.734C1.678,88.302 -4.361,87.472 -10.776,86.151C-15.238,85.182 -19.865,83.702 -24.374,83.641C-29.447,83.757 -34.842,83.941 -39.725,84.067C-44.044,84.466 -48.309,85.33 -52.649,84.646C-65.882,81.148 -78.422,89.243 -91.932,87.433C-99.35,86.624 -106.47,81.301 -113.952,82.833C-117.393,83.689 -119.714,86.698 -123.434,89.135C-129.381,93.033 -137.006,92.768 -143.94,93.557C-158.826,94.958 -171.739,96.248 -186.252,93.576C-195.135,92.559 -204.264,92.396 -211.761,90.71C-221.045,88.564 -229.906,85.688 -239.675,86.536C-253.809,88.194 -266.975,89.484 -281.516,87.943C-290.068,86.55 -299,86.589 -307.465,85.379C-314.773,84.454 -316.959,75.585 -324.6,76.637C-328.542,77.024 -332.693,78.647 -336.754,78.475C-339.102,78.358 -341.621,77.745 -343.922,77.085C-349.881,75.313 -356.958,73.887 -363.36,71.786C-373.757,68.088 -387.499,67.877 -397.79,63.577C-401.528,61.722 -405.065,59.669 -408.159,57.185C-410.628,55.043 -414.266,52.677 -416.872,52.086C-418.989,52.374 -419.632,53.995 -422.167,56.169C-423.572,57.489 -424.933,58.802 -425.895,59.549C-426.876,60.303 -427.488,60.63 -427.744,60.228C-428.108,56.391 -426.887,52.181 -428.852,48.096L-428.936,47.902C-431.468,42.435 -437.727,35.178 -441.993,31.135C-443.465,29.86 -445.166,28.279 -447.244,28.643C-448.452,28.824 -449.596,30.146 -450.326,31.324C-452.325,34.672 -453.385,38.772 -452.865,42.711C-452.232,48.777 -448.31,54.584 -446.359,59.487C-443.811,64.282 -444.873,70.648 -442.251,74.945C-440.359,78.085 -436.44,80.099 -434.177,82.85C-429.157,88.672 -436.562,94.845 -441.315,97.974C-447.181,102.116 -452.805,105.923 -455.802,112.224C-456.861,115.813 -457.128,123.351 -456.945,132.609L-457,132.609L-457,237.255L1910.99,237.255L1910.99,132.609C1910.98,122.557 1911.04,108.895 1910.96,99.52L1910.96,99.528Z" style="fill:rgb(245,240,232);fill-rule:nonzero;"/>
            </g>
            <g transform="matrix(0.81769,0,0,0.81769,36.002661,81.886967)">
                <path d="M1910.96,99.528C1910.93,96.577 1910.7,93.649 1909.94,90.936C1908.55,86.377 1904.99,85.263 1899.29,85.098C1877.34,84.981 1854.52,85.271 1832.95,88.795C1817.99,90.526 1803.24,96.38 1788.48,98.055C1778.86,98.966 1769.04,98.021 1759.33,99.058C1744.45,100.484 1730.63,100.767 1716.32,103.459C1709.5,104.495 1702.76,104.424 1695.86,102.843C1691.91,101.997 1687.64,100.693 1684.11,100.152C1672.47,98.637 1660.85,102.571 1649.18,100.372C1638.86,99.154 1628.86,97.516 1618.68,98.361C1611.46,99.183 1605.31,102.655 1598.66,104.969C1589.9,108.544 1580.91,107.24 1571.15,105.168C1561.88,103.618 1552.49,101.587 1543.05,101.681C1532.67,102.34 1522.98,106.352 1512.82,107.138C1497.57,107.245 1483.64,117.585 1468.97,118.45C1454.34,119.19 1440.4,113.284 1425.65,114.847C1414.06,115.671 1402.78,117.157 1391.82,119.974C1387.04,121.171 1382.22,122.369 1377.3,122.821C1366.26,123.949 1354.24,123.03 1342.84,123.233C1324.23,123.503 1305.67,119.087 1287.44,116.204C1261.89,113.999 1228.73,115.652 1202.93,115.014C1183.33,115.069 1167.97,113.184 1149.17,113.559C1125.29,113.684 1101.81,112.659 1078.16,115.677C1061.35,117.468 1044.65,116.12 1027.8,117.685C1006.14,120.213 985.605,111.982 964.244,110.243C949.234,109.166 937.222,109.907 923.265,107.925C902.214,106.516 875.161,107.113 853.097,107.479C832.448,107.44 809.54,110.813 788.235,110.009C776.766,109.386 765.256,110.764 753.7,111.355C735.057,111.826 717.111,111.706 698.905,108.372C686.039,106.287 673.467,102.11 660.207,102.601C648.59,103.105 636.842,103.771 625.406,103.513C616.8,103.824 608.456,104.448 599.756,104.702C586.349,104.635 573.018,101.888 560.239,100.547C539.93,99.254 518.671,96.176 498.316,95.728C477.539,96.786 452.396,101.071 431.829,99.779C420.637,98.202 408.768,97.847 397.3,97.804C386.76,97.591 376.481,95.646 365.935,95.689C342.56,96.599 319.798,97.18 296.592,96.68C285.06,96.886 273.729,98.62 261.961,99.065C244.596,99.487 229.431,98.232 212.512,101.261C201.69,103.033 190.724,101.841 179.802,101.412C174.822,101.239 169.476,101.075 164.724,100.13C149.751,96.377 136.477,91.617 121.409,88.261C110.296,84.878 98.809,88.907 87.564,89.227C80.067,89.542 72.504,88.221 64.863,87.937C58.484,87.82 51.925,87.901 45.693,87.687C38.016,87.697 30.293,87.241 22.486,87.65C17.599,87.876 12.947,88.876 8.178,88.734C1.678,88.302 -4.361,87.472 -10.776,86.151C-15.238,85.182 -19.865,83.702 -24.374,83.641C-29.447,83.757 -34.842,83.941 -39.725,84.067C-44.044,84.466 -48.309,85.33 -52.649,84.646C-65.882,81.148 -78.422,89.243 -91.932,87.433C-99.35,86.624 -106.47,81.301 -113.952,82.833C-117.393,83.689 -119.714,86.698 -123.434,89.135C-129.381,93.033 -137.006,92.768 -143.94,93.557C-158.826,94.958 -171.739,96.248 -186.252,93.576C-195.135,92.559 -204.264,92.396 -211.761,90.71C-221.045,88.564 -229.906,85.688 -239.675,86.536C-253.809,88.194 -266.975,89.484 -281.516,87.943C-290.068,86.55 -299,86.589 -307.465,85.379C-314.773,84.454 -316.959,75.585 -324.6,76.637C-328.542,77.024 -332.693,78.647 -336.754,78.475C-339.102,78.358 -341.621,77.745 -343.922,77.085C-349.881,75.313 -356.958,73.887 -363.36,71.786C-373.757,68.088 -387.499,67.877 -397.79,63.577C-401.528,61.722 -405.065,59.669 -408.159,57.185C-410.628,55.043 -414.266,52.677 -416.872,52.086C-418.989,52.374 -419.632,53.995 -422.167,56.169C-423.572,57.489 -424.933,58.802 -425.895,59.549C-426.876,60.303 -427.488,60.63 -427.744,60.228C-428.108,56.391 -426.887,52.181 -428.852,48.096L-428.936,47.902C-431.468,42.435 -437.727,35.178 -441.993,31.135C-443.465,29.86 -445.166,28.279 -447.244,28.643C-448.452,28.824 -449.596,30.146 -450.326,31.324C-452.325,34.672 -453.385,38.772 -452.865,42.711C-452.232,48.777 -448.31,54.584 -446.359,59.487C-443.811,64.282 -444.873,70.648 -442.251,74.945C-440.359,78.085 -436.44,80.099 -434.177,82.85C-429.157,88.672 -436.562,94.845 -441.315,97.974C-447.181,102.116 -452.805,105.923 -455.802,112.224C-456.861,115.813 -457.128,123.351 -456.945,132.609L-457,132.609L-457,237.255L1910.99,237.255L1910.99,132.609C1910.98,122.557 1911.04,108.895 1910.96,99.52L1910.96,99.528Z" style="fill:rgb(122,139,111);fill-opacity:0.25;fill-rule:nonzero;"/>
            </g>
        </g>
    </g>
</svg>
