<svg width="29" height="29" viewBox="0 0 29 29" fill="none" xmlns="http://www.w3.org/2000/svg">
<path d="M10.6241 6C11.0018 6 11.3498 6.20485 11.5332 6.53511L12.8051 8.82619C12.9716 9.12617 12.9794 9.489 12.826 9.7959L11.6007 12.2465C11.6007 12.2465 11.9558 14.0721 13.4418 15.5582C14.9279 17.0442 16.7474 17.3932 16.7474 17.3932L19.1976 16.1681C19.5047 16.0145 19.8678 16.0225 20.1679 16.1893L22.4654 17.4667C22.7954 17.6502 23 17.998 23 18.3755V21.0132C23 22.3564 21.7523 23.3266 20.4796 22.8971C17.8656 22.0151 13.8079 20.3357 11.2361 17.7639C8.66427 15.192 6.98491 11.1344 6.10288 8.52044C5.67344 7.24768 6.64361 6 7.98684 6H10.6241Z" stroke="#C9A84C" stroke-width="1.5" stroke-linejoin="round"/>
</svg>
