<svg width="26" height="26" viewBox="0 0 26 26" fill="none" xmlns="http://www.w3.org/2000/svg">
<path d="M11.199 10.749H13.6907V12.0262H13.7263C14.073 11.4044 14.9216 10.749 16.1862 10.749C18.8164 10.749 19.3029 12.3863 19.3029 14.5158V18.8529H16.7055V15.008C16.7055 14.0909 16.6868 12.9113 15.3545 12.9113C14.0018 12.9113 13.7953 13.91 13.7953 14.9414V18.8529H11.199V10.749ZM6.69678 10.749H9.39804V18.8529H6.69678V10.749ZM9.39804 8.49787C9.39804 9.24382 8.79334 9.84852 8.04742 9.84852C7.30147 9.84852 6.69678 9.24382 6.69678 8.49787C6.69678 7.75191 7.30147 7.14722 8.04742 7.14722C8.79334 7.14722 9.39804 7.75191 9.39804 8.49787Z" fill="white"/>
</svg>
