<?xml version="1.0" encoding="UTF-8" standalone="no"?>
<!DOCTYPE svg PUBLIC "-//W3C//DTD SVG 1.1//EN" "http://www.w3.org/Graphics/SVG/1.1/DTD/svg11.dtd">
<svg width="100%" height="100%" viewBox="0 0 14 14" version="1.1" xmlns="http://www.w3.org/2000/svg" xmlns:xlink="http://www.w3.org/1999/xlink" xml:space="preserve" xmlns:serif="http://www.serif.com/" style="fill-rule:evenodd;clip-rule:evenodd;stroke-linejoin:round;stroke-miterlimit:2;">
    <g transform="matrix(1,0,0,1,-9,-9)">
        <path d="M21,12.414L11.374,22.04C10.983,22.431 10.35,22.431 9.959,22.04C9.569,21.65 9.569,21.016 9.959,20.626L19.586,11L10,11C9.448,11 9,10.552 9,10C9,9.448 9.448,9 10,9L22,9C22.266,9 22.519,9.105 22.707,9.293C22.895,9.481 23,9.734 23,10L23,22C23,22.552 22.552,23 22,23C21.448,23 21,22.552 21,22L21,12.414Z" style="fill:rgb(24,24,24);"/>
    </g>
</svg>
