<svg width="43" height="39" viewBox="0 0 43 39" fill="none" xmlns="http://www.w3.org/2000/svg">
<path d="M10.4961 9.98028C16.1268 10.9413 21.221 8.94528 19.7887 5.06128C18.0112 8.04328 15.7008 8.58928 10.4961 9.98028Z" fill="white"/>
<path d="M8.17969 12.7613C14.8874 12.4193 16.9991 10.9213 18.8623 9.56128C18.5207 14.1273 10.9857 14.2793 8.17969 12.7613Z" fill="white"/>
<path d="M8.01953 16.1264C13.1534 15.0334 16.3806 14.5794 19.4263 11.7734C18.096 17.8064 10.2492 16.4364 8.01953 16.1264Z" fill="white"/>
<path d="M4.49902 20.2993C9.11988 21.3043 16.076 21.1993 15.481 15.6223C14.0202 18.0843 9.42297 19.1693 4.49902 20.2993Z" fill="white"/>
<path d="M1.80957 24.1994C8.92843 25.2564 14.2909 24.0874 15.225 19.3794C11.1531 22.7544 7.61918 22.5084 1.80957 24.1994Z" fill="white"/>
<path d="M0 27.5575C7.0729 26.7955 11.6254 25.7925 15.9494 21.8865C13.4427 26.8725 9.60443 29.6995 0 27.5575Z" fill="white"/>
<path d="M19.6052 28.0844C19.0649 33.8514 18.8003 36.1704 18.8003 36.1704C19.2174 36.0424 19.6548 35.9623 20.0996 35.9324C22.133 35.8674 21.3815 35.1384 20.5667 27.2934C20.5045 26.7014 19.6586 28.3174 19.6052 28.0844Z" fill="white"/>
<path d="M4.74902 30.8845C9.40094 29.6075 13.0517 28.3115 15.0851 25.6365C15.0851 31.2685 8.15256 31.1655 4.74902 30.8845Z" fill="white"/>
<path d="M10.5039 32.1363C15.9496 32.7923 20.0686 30.8513 20.0686 26.5103C17.3097 29.4843 15.2788 30.9993 10.5039 32.1363Z" fill="white"/>
<path d="M21.4038 27.5154C23.7527 29.7854 26.7079 32.0274 31.2169 32.6644C30.1492 32.9778 29.0054 33.0867 27.8763 32.9826C26.7472 32.8786 25.6637 32.5643 24.7115 32.0647C23.7594 31.5651 22.9648 30.8939 22.3907 30.1043C21.8166 29.3147 21.4787 28.4283 21.4038 27.5154Z" fill="white"/>
<path d="M27.2643 26.9893C26.4445 31.8013 32.341 32.4393 35.8054 32.2203C33.1546 30.8793 30.597 30.3203 27.2643 26.9893Z" fill="white"/>
<path d="M28.4297 23.8904C29.5029 29.3404 38.2167 29.2174 42.2575 27.0444C36.0765 26.7974 32.9686 27.2444 28.4297 23.8904Z" fill="white"/>
<path d="M21.1045 16.5303C21.5778 20.9783 27.1576 21.6993 31.0058 20.0483C25.4769 19.3813 24.7565 18.8553 21.1045 16.5303Z" fill="white"/>
<path d="M27.6681 19.8755C26.7514 23.8905 35.3434 26.4185 39.1917 24.3195C33.9646 23.4955 32.3076 23.3315 27.6681 19.8755Z" fill="white"/>
<path d="M27.0853 16.2134C26.0916 22.0794 36.101 21.7924 37.599 20.8264C32.8577 20.1584 29.8082 19.2264 27.0853 16.2134Z" fill="white"/>
<path d="M22.1865 12.8064C22.9318 17.7514 30.5736 18.0384 33.9647 16.2714C29.6239 16.4163 25.3886 15.1703 22.1865 12.8064Z" fill="white"/>
<path d="M21.9354 9.13745C21 14.4255 28.7958 14.3985 31.3858 13.7455C27.4319 13.0785 24.2284 12.2955 21.9354 9.13745Z" fill="white"/>
<path d="M13.7236 5.69134C14.4118 6.13034 24.1777 5.62334 20.8885 0.277344C20.1692 3.07734 18.3855 4.57034 13.7236 5.69134Z" fill="white"/>
<path d="M29.2221 5.56846C27.0161 5.26846 23.4659 5.76846 21.7691 2.22046C18.8575 4.66646 24.6323 7.31146 29.2221 5.56846Z" fill="white"/>
<path d="M11.6763 36.4625C20.9838 38.1805 28.5424 37.1685 26.3537 34.6165C35.342 37.0085 19.4261 40.4165 11.6763 36.4625Z" fill="white"/>
<path d="M21.8261 2.33737C21.3777 1.23737 21.7479 0.588368 20.7877 0.0163679C20.5604 -0.119632 21.0138 0.589368 20.061 2.23737C19.8126 2.66337 20.6821 2.75237 21.3342 2.63737C21.5358 2.58325 21.7101 2.47799 21.8311 2.33737" fill="white"/>
<path d="M20.1913 26.3904C20.0199 26.3654 19.4336 27.9484 18.8622 28.5854C18.4896 29.0004 20.7255 29.6854 20.7093 28.9644C20.677 27.4464 20.4385 26.4264 20.1913 26.3904Z" fill="white"/>
<path d="M20.9056 3.42432C22.1701 6.46732 24.3389 9.02432 30.9808 9.39332C28.5946 9.71132 20.4075 11.7733 20.9056 3.42432Z" fill="white"/>
</svg>
