<?xml version="1.0" encoding="UTF-8" standalone="no"?>
<!DOCTYPE svg PUBLIC "-//W3C//DTD SVG 1.1//EN" "http://www.w3.org/Graphics/SVG/1.1/DTD/svg11.dtd">
<svg width="100%" height="100%" viewBox="0 0 2363 348" version="1.1" xmlns="http://www.w3.org/2000/svg" xmlns:xlink="http://www.w3.org/1999/xlink" xml:space="preserve" xmlns:serif="http://www.serif.com/" style="fill-rule:evenodd;clip-rule:evenodd;stroke-linejoin:round;stroke-miterlimit:2;">
    <g transform="matrix(1,0,0,1,-22428,-25850.478928)">
        <g id="Layer-1" serif:id="Layer 1">
        </g>
        <g id="Layer-11" serif:id="Layer 1">
        </g>
        <g id="logo-idea01" transform="matrix(1.008772,0,0,1.186593,-196.858166,-4836.001885)">
            <rect x="22428.118" y="25860.995" width="2341.535" height="292.657" style="fill:none;"/>
            <g id="BMM" transform="matrix(4.49193,0,0,3.511453,22846.485259,25853.340293)">
                <path d="M4.159,24.08L4.159,22.512L9.932,22.512C11.63,22.512 12.869,22.195 13.651,21.56C14.432,20.925 14.823,19.983 14.823,18.732C14.823,17.5 14.432,16.613 13.651,16.072C12.869,15.531 11.63,15.26 9.932,15.26L4.159,15.26L4.159,14.084L10.638,14.084C11.579,14.084 12.415,14.168 13.146,14.336C13.877,14.504 14.495,14.775 14.999,15.148C15.503,15.521 15.886,16.002 16.146,16.59C16.407,17.178 16.537,17.892 16.537,18.732C16.537,19.852 16.293,20.809 15.806,21.602C15.319,22.395 14.588,23.007 13.613,23.436C12.638,23.865 11.411,24.08 9.932,24.08L4.159,24.08ZM2.672,24.08L2.672,5.04L4.26,5.04L4.26,24.08L2.672,24.08ZM3.428,14.812L3.428,13.692L9.201,13.692C10.899,13.692 12.142,13.384 12.932,12.768C13.722,12.152 14.117,11.228 14.117,9.996C14.117,8.764 13.722,7.891 12.932,7.378C12.142,6.865 10.899,6.608 9.201,6.608L3.428,6.608L3.428,5.04L9.201,5.04C11.403,5.04 13.05,5.446 14.142,6.258C15.235,7.07 15.781,8.307 15.781,9.968C15.781,10.64 15.692,11.237 15.516,11.76C15.34,12.283 15.083,12.735 14.747,13.118C14.411,13.501 14.008,13.818 13.537,14.07C13.067,14.322 12.529,14.509 11.924,14.63C11.319,14.751 10.655,14.812 9.932,14.812L3.428,14.812Z" style="fill-rule:nonzero;"/>
                <path d="M20.848,24.08L20.848,5.04L22.461,5.04L22.461,24.08L20.848,24.08ZM21.604,24.08L21.604,22.512L32.897,22.512L32.897,24.08L21.604,24.08ZM21.604,14.476L21.604,12.908L31.032,12.908C31.284,12.908 31.49,12.973 31.65,13.104C31.809,13.235 31.889,13.431 31.889,13.692C31.889,13.935 31.809,14.126 31.65,14.266C31.49,14.406 31.284,14.476 31.032,14.476L21.604,14.476ZM21.604,6.608L21.604,5.04L32.897,5.04L32.897,6.608L21.604,6.608Z" style="fill-rule:nonzero;"/>
                <path d="M47.241,24.08C47.023,23.464 46.884,22.773 46.825,22.008C46.766,21.243 46.712,20.463 46.661,19.67C46.611,18.877 46.489,18.149 46.296,17.486C46.103,16.823 45.771,16.291 45.3,15.89C44.829,15.489 44.132,15.288 43.208,15.288L36.855,15.288L36.855,14.252L43.535,14.252C44.628,14.252 45.485,14.397 46.107,14.686C46.729,14.975 47.191,15.377 47.493,15.89C47.796,16.403 48.002,16.987 48.111,17.64C48.22,18.293 48.296,18.989 48.338,19.726C48.38,20.463 48.451,21.205 48.552,21.952C48.653,22.699 48.846,23.408 49.132,24.08L47.241,24.08ZM35.973,24.08L35.973,5.04L37.586,5.04L37.586,24.08L35.973,24.08ZM36.779,14.812L36.779,13.72L42.552,13.72C44.25,13.72 45.485,13.421 46.258,12.824C47.031,12.227 47.418,11.321 47.418,10.108C47.418,8.895 47.031,8.008 46.258,7.448C45.485,6.888 44.25,6.608 42.552,6.608L36.779,6.608L36.779,5.04L42.552,5.04C44.771,5.04 46.422,5.46 47.506,6.3C48.59,7.14 49.132,8.381 49.132,10.024C49.132,11.125 48.884,12.031 48.388,12.74C47.892,13.449 47.157,13.972 46.182,14.308C45.208,14.644 43.998,14.812 42.552,14.812L36.779,14.812Z" style="fill-rule:nonzero;"/>
                <path d="M54.879,5.04L54.879,24.08L53.266,24.08L53.266,5.04L54.879,5.04ZM54.274,14.252L62.921,5.46C63.123,5.255 63.299,5.105 63.45,5.012C63.602,4.919 63.761,4.872 63.929,4.872C64.148,4.872 64.316,4.942 64.433,5.082C64.551,5.222 64.61,5.395 64.61,5.6C64.61,5.787 64.564,5.959 64.471,6.118C64.379,6.277 64.257,6.431 64.106,6.58L55.963,14.7L56.014,13.664L65.366,24.08L63.097,24.08L54.274,14.252Z" style="fill-rule:nonzero;"/>
                <path d="M73.508,24.416C72.382,24.416 71.324,24.267 70.332,23.968C69.341,23.669 68.475,23.249 67.736,22.708L67.736,21.084C68.71,21.719 69.668,22.181 70.609,22.47C71.551,22.759 72.509,22.904 73.483,22.904C75.181,22.904 76.412,22.545 77.176,21.826C77.941,21.107 78.323,20.263 78.323,19.292C78.323,18.527 78.13,17.906 77.744,17.43C77.357,16.954 76.849,16.571 76.218,16.282C75.588,15.993 74.895,15.741 74.139,15.526C73.382,15.311 72.626,15.078 71.87,14.826C71.114,14.574 70.42,14.257 69.79,13.874C69.16,13.491 68.652,12.992 68.265,12.376C67.879,11.76 67.685,10.967 67.685,9.996C67.685,8.969 67.916,8.059 68.378,7.266C68.841,6.473 69.525,5.847 70.433,5.39C71.341,4.933 72.45,4.704 73.761,4.704C74.954,4.704 75.937,4.881 76.71,5.236C77.483,5.591 78.105,6.039 78.575,6.58C78.76,6.785 78.907,6.995 79.017,7.21C79.126,7.425 79.18,7.663 79.18,7.924C79.18,8.167 79.122,8.363 79.004,8.512C78.886,8.661 78.735,8.736 78.55,8.736C78.281,8.736 78.046,8.61 77.844,8.358C77.643,8.106 77.399,7.812 77.113,7.476C76.828,7.14 76.428,6.846 75.916,6.594C75.403,6.342 74.685,6.216 73.761,6.216C72.298,6.216 71.181,6.571 70.408,7.28C69.635,7.989 69.248,8.867 69.248,9.912C69.248,10.659 69.441,11.265 69.828,11.732C70.215,12.199 70.723,12.572 71.353,12.852C71.983,13.132 72.677,13.375 73.433,13.58C74.189,13.785 74.945,14.009 75.702,14.252C76.458,14.495 77.151,14.812 77.781,15.204C78.412,15.596 78.92,16.109 79.306,16.744C79.693,17.379 79.886,18.2 79.886,19.208C79.886,20.291 79.638,21.224 79.143,22.008C78.647,22.792 77.924,23.389 76.975,23.8C76.025,24.211 74.87,24.416 73.508,24.416Z" style="fill-rule:nonzero;"/>
                <path d="M95.616,24.08L95.616,5.04L97.23,5.04L97.23,24.08L95.616,24.08ZM83.768,24.08L83.768,5.04L85.382,5.04L85.382,24.08L83.768,24.08ZM84.525,14.504L84.525,12.936L96.322,12.936L96.322,14.504L84.525,14.504Z" style="fill-rule:nonzero;"/>
                <rect x="102.574" y="5.04" width="1.588" height="19.04" style="fill-rule:nonzero;"/>
                <path d="M120.775,24.08C120.556,23.464 120.418,22.773 120.359,22.008C120.3,21.243 120.245,20.463 120.195,19.67C120.144,18.877 120.023,18.149 119.829,17.486C119.636,16.823 119.304,16.291 118.834,15.89C118.363,15.489 117.666,15.288 116.741,15.288L110.389,15.288L110.389,14.252L117.069,14.252C118.161,14.252 119.018,14.397 119.64,14.686C120.262,14.975 120.724,15.377 121.027,15.89C121.329,16.403 121.535,16.987 121.644,17.64C121.754,18.293 121.829,18.989 121.871,19.726C121.913,20.463 121.985,21.205 122.086,21.952C122.186,22.699 122.38,23.408 122.665,24.08L120.775,24.08ZM109.506,24.08L109.506,5.04L111.12,5.04L111.12,24.08L109.506,24.08ZM110.313,14.812L110.313,13.72L116.086,13.72C117.783,13.72 119.018,13.421 119.792,12.824C120.565,12.227 120.951,11.321 120.951,10.108C120.951,8.895 120.565,8.008 119.792,7.448C119.018,6.888 117.783,6.608 116.086,6.608L110.313,6.608L110.313,5.04L116.086,5.04C118.304,5.04 119.955,5.46 121.039,6.3C122.123,7.14 122.665,8.381 122.665,10.024C122.665,11.125 122.417,12.031 121.922,12.74C121.426,13.449 120.691,13.972 119.716,14.308C118.741,14.644 117.531,14.812 116.086,14.812L110.313,14.812Z" style="fill-rule:nonzero;"/>
                <path d="M126.799,24.08L126.799,5.04L128.413,5.04L128.413,24.08L126.799,24.08ZM127.556,24.08L127.556,22.512L138.849,22.512L138.849,24.08L127.556,24.08ZM127.556,14.476L127.556,12.908L136.984,12.908C137.236,12.908 137.442,12.973 137.601,13.104C137.761,13.235 137.841,13.431 137.841,13.692C137.841,13.935 137.761,14.126 137.601,14.266C137.442,14.406 137.236,14.476 136.984,14.476L127.556,14.476ZM127.556,6.608L127.556,5.04L138.849,5.04L138.849,6.608L127.556,6.608Z" style="fill-rule:nonzero;"/>
                <path d="M163.403,5.656C163.587,5.357 163.777,5.124 163.97,4.956C164.163,4.788 164.394,4.704 164.663,4.704C164.999,4.704 165.268,4.844 165.47,5.124C165.671,5.404 165.772,5.824 165.772,6.384L165.772,24.08L164.26,24.08L164.26,6.048L164.839,6.132L157.151,18.872L149.462,6.132L150.042,6.048L150.042,24.08L148.529,24.08L148.529,6.384C148.529,5.805 148.634,5.381 148.844,5.11C149.055,4.839 149.344,4.704 149.714,4.704C150,4.704 150.239,4.788 150.433,4.956C150.626,5.124 150.807,5.357 150.975,5.656L157.781,16.912L156.596,16.912L163.403,5.656Z" style="fill-rule:nonzero;"/>
                <path d="M169.957,14.84C169.957,12.861 170.297,11.111 170.978,9.59C171.658,8.069 172.633,6.874 173.902,6.006C175.171,5.138 176.679,4.704 178.427,4.704C180.141,4.704 181.62,5.105 182.864,5.908C184.107,6.711 185.065,7.831 185.737,9.268C186.41,10.705 186.746,12.385 186.746,14.308C186.746,16.268 186.406,18.009 185.725,19.53C185.044,21.051 184.074,22.246 182.813,23.114C181.553,23.982 180.04,24.416 178.276,24.416C176.578,24.416 175.104,24.019 173.852,23.226C172.599,22.433 171.637,21.317 170.965,19.88C170.293,18.443 169.957,16.763 169.957,14.84ZM171.671,14.784C171.671,16.408 171.944,17.831 172.49,19.054C173.036,20.277 173.805,21.224 174.797,21.896C175.788,22.568 176.956,22.904 178.301,22.904C179.713,22.904 180.923,22.54 181.931,21.812C182.939,21.084 183.708,20.076 184.238,18.788C184.767,17.5 185.032,16.025 185.032,14.364C185.032,12.74 184.759,11.317 184.212,10.094C183.666,8.871 182.897,7.919 181.906,7.238C180.914,6.557 179.746,6.216 178.402,6.216C176.99,6.216 175.784,6.58 174.784,7.308C173.784,8.036 173.015,9.044 172.478,10.332C171.94,11.62 171.671,13.104 171.671,14.784Z" style="fill-rule:nonzero;"/>
                <path d="M190.93,24.08L190.93,6.272C190.93,5.805 191.019,5.455 191.195,5.222C191.372,4.989 191.619,4.872 191.939,4.872C192.224,4.872 192.468,4.965 192.67,5.152C192.871,5.339 193.082,5.6 193.3,5.936L203.837,22.484L203.081,22.624L203.081,5.04L204.543,5.04L204.543,24.08L202.955,24.08L191.863,6.636L192.392,6.468L192.392,24.08L190.93,24.08Z" style="fill-rule:nonzero;"/>
                <path d="M209.887,24.08L209.887,5.04L211.501,5.04L211.501,24.08L209.887,24.08ZM210.644,24.08L210.644,22.512L221.937,22.512L221.937,24.08L210.644,24.08ZM210.644,14.476L210.644,12.908L220.072,12.908C220.324,12.908 220.53,12.973 220.689,13.104C220.849,13.235 220.929,13.431 220.929,13.692C220.929,13.935 220.849,14.126 220.689,14.266C220.53,14.406 220.324,14.476 220.072,14.476L210.644,14.476ZM210.644,6.608L210.644,5.04L221.937,5.04L221.937,6.608L210.644,6.608Z" style="fill-rule:nonzero;"/>
                <path d="M231.617,15.148L230.256,14.392L236.583,5.04L238.474,5.04L231.617,15.148ZM230.155,24.08L230.155,14.588L231.718,14.588L231.718,24.08L230.155,24.08ZM230.231,15.148L223.399,5.04L225.29,5.04L231.617,14.392L230.231,15.148Z" style="fill-rule:nonzero;"/>
                <path d="M262.271,5.656C262.456,5.357 262.645,5.124 262.838,4.956C263.031,4.788 263.263,4.704 263.531,4.704C263.868,4.704 264.136,4.844 264.338,5.124C264.54,5.404 264.641,5.824 264.641,6.384L264.641,24.08L263.128,24.08L263.128,6.048L263.708,6.132L256.019,18.872L248.331,6.132L248.91,6.048L248.91,24.08L247.398,24.08L247.398,6.384C247.398,5.805 247.503,5.381 247.713,5.11C247.923,4.839 248.213,4.704 248.583,4.704C248.868,4.704 249.108,4.788 249.301,4.956C249.494,5.124 249.675,5.357 249.843,5.656L256.649,16.912L255.465,16.912L262.271,5.656Z" style="fill-rule:nonzero;"/>
                <path d="M267.64,24.08L274.195,5.936C274.346,5.507 274.527,5.194 274.737,4.998C274.947,4.802 275.186,4.704 275.455,4.704C275.741,4.704 275.984,4.802 276.186,4.998C276.388,5.194 276.564,5.507 276.716,5.936L283.219,24.08L281.556,24.08L275.027,5.6L275.884,5.6L269.329,24.08L267.64,24.08ZM271.119,18.368L271.119,16.8L279.766,16.8L279.766,18.368L271.119,18.368Z" style="fill-rule:nonzero;"/>
                <path d="M286.219,24.08L286.219,6.272C286.219,5.805 286.307,5.455 286.484,5.222C286.66,4.989 286.908,4.872 287.228,4.872C287.513,4.872 287.757,4.965 287.959,5.152C288.16,5.339 288.37,5.6 288.589,5.936L299.126,22.484L298.37,22.624L298.37,5.04L299.832,5.04L299.832,24.08L298.244,24.08L287.152,6.636L287.681,6.468L287.681,24.08L286.219,24.08Z" style="fill-rule:nonzero;"/>
                <path d="M302.832,24.08L309.386,5.936C309.537,5.507 309.718,5.194 309.928,4.998C310.138,4.802 310.378,4.704 310.646,4.704C310.932,4.704 311.176,4.802 311.377,4.998C311.579,5.194 311.756,5.507 311.907,5.936L318.411,24.08L316.747,24.08L310.218,5.6L311.075,5.6L304.521,24.08L302.832,24.08ZM306.31,18.368L306.31,16.8L314.957,16.8L314.957,18.368L306.31,18.368Z" style="fill-rule:nonzero;"/>
                <path d="M328.242,24.416C326.427,24.416 324.885,24.019 323.616,23.226C322.347,22.433 321.377,21.313 320.705,19.866C320.032,18.419 319.696,16.725 319.696,14.784C319.696,12.824 320.037,11.088 320.717,9.576C321.398,8.064 322.402,6.874 323.73,6.006C325.057,5.138 326.679,4.704 328.595,4.704C329.486,4.704 330.276,4.802 330.965,4.998C331.654,5.194 332.254,5.441 332.767,5.74C333.28,6.039 333.696,6.365 334.015,6.72C334.233,6.944 334.406,7.168 334.532,7.392C334.658,7.616 334.721,7.849 334.721,8.092C334.721,8.335 334.658,8.526 334.532,8.666C334.406,8.806 334.25,8.876 334.065,8.876C333.796,8.876 333.544,8.741 333.309,8.47C333.074,8.199 332.784,7.891 332.439,7.546C332.095,7.201 331.62,6.893 331.015,6.622C330.41,6.351 329.595,6.216 328.57,6.216C326.956,6.216 325.62,6.58 324.562,7.308C323.503,8.036 322.713,9.039 322.192,10.318C321.671,11.597 321.41,13.048 321.41,14.672C321.41,16.296 321.667,17.724 322.179,18.956C322.692,20.188 323.452,21.154 324.461,21.854C325.469,22.554 326.73,22.904 328.242,22.904C330.192,22.904 331.67,22.297 332.679,21.084C333.687,19.871 334.208,18.116 334.242,15.82L328.066,15.82L328.066,14.252L335.906,14.252C336.04,17.612 335.448,20.146 334.128,21.854C332.809,23.562 330.847,24.416 328.242,24.416Z" style="fill-rule:nonzero;"/>
                <path d="M339.687,24.08L339.687,5.04L341.3,5.04L341.3,24.08L339.687,24.08ZM340.443,24.08L340.443,22.512L351.737,22.512L351.737,24.08L340.443,24.08ZM340.443,14.476L340.443,12.908L349.871,12.908C350.123,12.908 350.329,12.973 350.489,13.104C350.648,13.235 350.728,13.431 350.728,13.692C350.728,13.935 350.648,14.126 350.489,14.266C350.329,14.406 350.123,14.476 349.871,14.476L340.443,14.476ZM340.443,6.608L340.443,5.04L351.737,5.04L351.737,6.608L340.443,6.608Z" style="fill-rule:nonzero;"/>
                <path d="M369.685,5.656C369.87,5.357 370.059,5.124 370.252,4.956C370.446,4.788 370.677,4.704 370.946,4.704C371.282,4.704 371.551,4.844 371.752,5.124C371.954,5.404 372.055,5.824 372.055,6.384L372.055,24.08L370.542,24.08L370.542,6.048L371.122,6.132L363.433,18.872L355.745,6.132L356.324,6.048L356.324,24.08L354.812,24.08L354.812,6.384C354.812,5.805 354.917,5.381 355.127,5.11C355.337,4.839 355.627,4.704 355.997,4.704C356.282,4.704 356.522,4.788 356.715,4.956C356.908,5.124 357.089,5.357 357.257,5.656L364.064,16.912L362.879,16.912L369.685,5.656Z" style="fill-rule:nonzero;"/>
                <path d="M377.399,24.08L377.399,5.04L379.012,5.04L379.012,24.08L377.399,24.08ZM378.155,24.08L378.155,22.512L389.449,22.512L389.449,24.08L378.155,24.08ZM378.155,14.476L378.155,12.908L387.583,12.908C387.835,12.908 388.041,12.973 388.201,13.104C388.361,13.235 388.44,13.431 388.44,13.692C388.44,13.935 388.361,14.126 388.201,14.266C388.041,14.406 387.835,14.476 387.583,14.476L378.155,14.476ZM378.155,6.608L378.155,5.04L389.449,5.04L389.449,6.608L378.155,6.608Z" style="fill-rule:nonzero;"/>
                <path d="M392.524,24.08L392.524,6.272C392.524,5.805 392.612,5.455 392.789,5.222C392.965,4.989 393.213,4.872 393.532,4.872C393.818,4.872 394.062,4.965 394.263,5.152C394.465,5.339 394.675,5.6 394.894,5.936L405.431,22.484L404.675,22.624L404.675,5.04L406.137,5.04L406.137,24.08L404.549,24.08L393.457,6.636L393.986,6.468L393.986,24.08L392.524,24.08Z" style="fill-rule:nonzero;"/>
                <path d="M415.414,24.08L415.414,5.04L417.027,5.04L417.027,24.08L415.414,24.08ZM408.809,6.608L408.809,5.04L423.632,5.04L423.632,6.608L408.809,6.608Z" style="fill-rule:nonzero;"/>
            </g>
            <g id="Tax-and-Accounting" serif:id="Tax and Accounting" transform="matrix(4.561,0.001431,-0.001524,3.511453,22848.738885,25847.440906)">
                <path d="M13.239,46.289L1.885,46.289L1.885,40.494L30.523,40.494L30.523,46.289L19.168,46.289L19.168,75.854L13.239,75.854L13.239,46.289ZM43.57,71.515C42.892,72.996 41.975,74.134 40.816,74.929C39.313,75.962 37.628,76.478 35.762,76.478C33.502,76.478 31.698,75.808 30.348,74.468C28.998,73.128 28.323,71.303 28.323,68.993C28.323,66.907 28.927,65.256 30.135,64.042C31.343,62.827 33.144,61.98 35.537,61.5L40.018,60.639C41.347,60.348 42.22,60.033 42.636,59.695C43.052,59.356 43.26,58.825 43.26,58.101L43.26,57.969C43.26,56.544 42.873,55.568 42.098,55.039C41.323,54.511 40.299,54.247 39.026,54.247C37.817,54.247 36.834,54.41 36.079,54.735C35.324,55.06 34.698,55.442 34.202,55.881C33.706,56.32 33.245,56.702 32.818,57.027C32.391,57.352 31.891,57.514 31.318,57.514C30.631,57.514 30.079,57.304 29.661,56.884C29.244,56.464 29.035,55.884 29.035,55.143C29.035,54.619 29.153,54.093 29.389,53.565C29.626,53.037 30.032,52.511 30.61,51.989C32.486,50.15 35.286,49.23 39.009,49.23C41.062,49.23 42.81,49.528 44.252,50.125C45.694,50.721 46.801,51.711 47.573,53.096C48.345,54.48 48.73,56.329 48.73,58.642L48.73,67.873C48.73,69.613 48.831,71.163 49.033,72.522C49.234,73.881 49.486,74.992 49.789,75.854L44.268,75.854C44.049,75.337 43.875,74.59 43.747,73.614C43.662,72.961 43.603,72.262 43.57,71.515ZM43.26,62.831C43.066,63.056 42.767,63.271 42.365,63.479C41.962,63.686 41.353,63.891 40.536,64.094L37.617,64.753C36.583,64.978 35.742,65.369 35.092,65.927C34.442,66.486 34.117,67.329 34.117,68.458C34.117,69.574 34.444,70.45 35.099,71.088C35.753,71.725 36.622,72.043 37.707,72.043C38.694,72.043 39.609,71.782 40.453,71.259C41.296,70.737 41.975,69.985 42.489,69.004C43.003,68.022 43.26,66.87 43.26,65.546L43.26,62.831ZM60.442,62.859L52.628,49.854L58.678,49.854L64.148,58.964L69.592,49.854L75.533,49.854L67.75,62.903L75.512,75.854L69.462,75.854L64.026,66.805L58.59,75.854L52.648,75.854L60.442,62.859ZM103.087,71.515C102.41,72.997 101.492,74.135 100.334,74.93C98.83,75.963 97.146,76.479 95.28,76.479C93.02,76.479 91.216,75.809 89.866,74.469C88.516,73.129 87.841,71.304 87.841,68.993C87.841,66.907 88.445,65.257 89.653,64.042C90.861,62.828 92.662,61.98 95.055,61.501L99.536,60.64C100.865,60.349 101.738,60.034 102.154,59.696C102.57,59.357 102.778,58.826 102.778,58.102L102.778,57.969C102.778,56.545 102.391,55.568 101.616,55.04C100.841,54.512 99.817,54.248 98.544,54.248C97.334,54.248 96.352,54.411 95.597,54.736C94.841,55.061 94.216,55.443 93.72,55.882C93.224,56.321 92.762,56.703 92.335,57.028C91.908,57.353 91.409,57.515 90.836,57.515C90.149,57.515 89.596,57.305 89.179,56.885C88.762,56.465 88.553,55.885 88.553,55.144C88.553,54.62 88.671,54.094 88.907,53.566C89.143,53.038 89.55,52.512 90.127,51.989C92.004,50.15 94.803,49.231 98.527,49.231C100.58,49.231 102.328,49.529 103.77,50.126C105.212,50.722 106.319,51.712 107.091,53.097C107.862,54.481 108.248,56.33 108.248,58.643L108.248,67.874C108.248,69.614 108.349,71.164 108.55,72.523C108.752,73.882 109.004,74.993 109.307,75.855L103.786,75.855C103.566,75.338 103.393,74.591 103.265,73.615C103.18,72.962 103.121,72.262 103.087,71.515ZM102.778,62.832C102.583,63.056 102.285,63.272 101.882,63.48C101.48,63.687 100.87,63.892 100.054,64.095L97.135,64.754C96.101,64.979 95.259,65.37 94.61,65.928C93.96,66.486 93.635,67.33 93.635,68.459C93.635,69.575 93.962,70.451 94.616,71.088C95.27,71.726 96.14,72.044 97.225,72.044C98.212,72.044 99.127,71.783 99.97,71.26C100.814,70.738 101.492,69.986 102.007,69.004C102.521,68.023 102.778,66.871 102.778,65.547L102.778,62.832ZM119.773,61.526L119.773,75.855L114.303,75.855L114.303,49.855L119.773,49.855L119.773,53.625C120.085,53.087 120.432,52.602 120.812,52.17C121.694,51.169 122.696,50.429 123.82,49.95C124.944,49.471 126.104,49.231 127.299,49.231C128.817,49.231 130.228,49.609 131.531,50.366C132.833,51.122 133.877,52.311 134.662,53.932C135.447,55.553 135.839,57.669 135.839,60.28L135.839,75.855L130.37,75.855L130.37,61.147C130.37,59.678 130.148,58.487 129.704,57.575C129.26,56.663 128.662,55.992 127.91,55.56C127.159,55.129 126.331,54.914 125.427,54.914C124.463,54.914 123.548,55.152 122.682,55.629C121.816,56.106 121.114,56.829 120.578,57.797C120.041,58.766 119.773,60.009 119.773,61.526ZM158.093,72.018C157.471,73.079 156.716,73.968 155.827,74.686C154.348,75.881 152.579,76.479 150.519,76.479C148.58,76.479 146.821,75.931 145.24,74.834C143.66,73.737 142.415,72.174 141.507,70.146C140.6,68.118 140.146,65.71 140.146,62.922C140.146,60.158 140.594,57.757 141.492,55.718C142.39,53.678 143.64,52.088 145.242,50.945C146.844,49.802 148.694,49.231 150.793,49.231C152.825,49.231 154.529,49.763 155.903,50.828C156.83,51.546 157.56,52.459 158.093,53.568L158.093,38.415L163.563,38.415L163.563,75.855L158.093,75.855L158.093,72.018ZM158.093,61.058C158.093,59.775 157.843,58.635 157.342,57.638C156.84,56.641 156.158,55.86 155.293,55.294C154.428,54.729 153.428,54.446 152.291,54.446C151.043,54.446 149.941,54.799 148.985,55.505C148.029,56.211 147.282,57.19 146.745,58.44C146.208,59.69 145.94,61.159 145.94,62.847C145.94,64.499 146.208,65.945 146.745,67.184C147.282,68.423 148.026,69.382 148.977,70.06C149.927,70.738 151.047,71.077 152.335,71.077C154.055,71.077 155.445,70.465 156.504,69.241C157.563,68.016 158.093,66.412 158.093,64.427L158.093,61.058ZM186.199,67.831L183.487,75.856L177.179,75.856L188.456,44.219C188.953,42.785 189.582,41.702 190.341,40.97C191.101,40.238 192.021,39.872 193.099,39.872C194.175,39.872 195.091,40.235 195.846,40.961C196.602,41.686 197.228,42.773 197.725,44.219L208.959,75.856L202.63,75.856L199.912,67.831L186.199,67.831ZM198.013,62.224L193.049,47.565L188.095,62.224L198.013,62.224ZM231.377,55.349C231.377,56.199 231.149,56.858 230.693,57.325C230.237,57.793 229.65,58.026 228.932,58.026C228.271,58.026 227.733,57.836 227.317,57.456C226.902,57.076 226.492,56.644 226.088,56.16C225.685,55.676 225.193,55.245 224.614,54.865C224.035,54.485 223.252,54.295 222.265,54.295C220.369,54.295 218.878,55.053 217.791,56.571C216.704,58.089 216.16,60.125 216.16,62.679C216.16,64.396 216.429,65.884 216.968,67.143C217.506,68.402 218.319,69.376 219.409,70.064C220.498,70.753 221.876,71.097 223.54,71.097C224.666,71.097 225.814,70.931 226.986,70.6C228.157,70.268 229.388,69.754 230.678,69.056L230.678,74.036C229.74,74.672 228.628,75.239 227.342,75.735C226.056,76.232 224.493,76.48 222.654,76.48C218.812,76.48 215.787,75.284 213.578,72.892C211.369,70.5 210.264,67.227 210.264,63.074C210.264,60.301 210.757,57.875 211.743,55.796C212.729,53.718 214.132,52.104 215.951,50.955C217.771,49.806 219.931,49.232 222.431,49.232C224.14,49.232 225.655,49.508 226.975,50.06C228.295,50.612 229.342,51.338 230.116,52.237C230.957,53.187 231.377,54.225 231.377,55.349ZM254.933,55.349C254.933,56.199 254.706,56.858 254.25,57.325C253.794,57.793 253.207,58.026 252.488,58.026C251.828,58.026 251.29,57.836 250.874,57.456C250.459,57.076 250.049,56.644 249.645,56.16C249.242,55.676 248.75,55.245 248.171,54.865C247.592,54.485 246.809,54.295 245.822,54.295C243.926,54.295 242.435,55.053 241.348,56.571C240.261,58.089 239.717,60.125 239.717,62.679C239.717,64.396 239.986,65.884 240.524,67.143C241.062,68.402 241.876,69.376 242.966,70.064C244.055,70.753 245.432,71.097 247.097,71.097C248.223,71.097 249.371,70.931 250.543,70.6C251.714,70.268 252.945,69.754 254.234,69.056L254.234,74.036C253.297,74.672 252.185,75.239 250.899,75.735C249.613,76.232 248.05,76.48 246.211,76.48C242.369,76.48 239.343,75.284 237.135,72.892C234.926,70.5 233.821,67.227 233.821,63.074C233.821,60.301 234.314,57.875 235.3,55.796C236.286,53.718 237.689,52.104 239.508,50.955C241.328,49.806 243.487,49.232 245.988,49.232C247.697,49.232 249.212,49.508 250.532,50.06C251.851,50.612 252.899,51.338 253.673,52.237C254.513,53.187 254.933,54.225 254.933,55.349ZM257.378,63.074C257.378,60.286 257.877,57.86 258.874,55.795C259.871,53.73 261.282,52.12 263.105,50.965C264.929,49.809 267.074,49.232 269.541,49.232C271.922,49.232 274.009,49.778 275.803,50.87C277.597,51.962 278.999,53.505 280.008,55.5C281.018,57.495 281.523,59.88 281.523,62.656C281.523,65.404 281.027,67.818 280.035,69.897C279.044,71.975 277.641,73.592 275.827,74.747C274.013,75.902 271.863,76.48 269.377,76.48C267.008,76.48 264.92,75.934 263.115,74.842C261.31,73.75 259.902,72.201 258.893,70.195C257.883,68.189 257.378,65.816 257.378,63.074ZM263.112,62.972C263.112,64.693 263.381,66.175 263.917,67.419C264.454,68.663 265.198,69.616 266.149,70.276C267.099,70.937 268.165,71.268 269.344,71.268C270.572,71.268 271.671,70.922 272.642,70.231C273.613,69.54 274.381,68.557 274.944,67.282C275.508,66.007 275.789,64.491 275.789,62.734C275.789,61.004 275.521,59.521 274.984,58.283C274.447,57.045 273.709,56.096 272.771,55.435C271.832,54.774 270.761,54.444 269.557,54.444C268.33,54.444 267.23,54.79 266.259,55.482C265.288,56.173 264.521,57.151 263.957,58.415C263.394,59.678 263.112,61.198 263.112,62.972ZM296.533,76.48C293.132,76.48 290.505,75.503 288.653,73.549C286.802,71.595 285.876,68.686 285.876,64.82L285.876,49.856L291.346,49.856L291.346,64.768C291.346,66.87 291.804,68.444 292.718,69.49C293.633,70.537 294.905,71.06 296.533,71.06C298.183,71.06 299.46,70.537 300.364,69.49C301.269,68.444 301.722,66.87 301.722,64.768L301.722,49.856L307.192,49.856L307.192,64.82C307.192,68.686 306.266,71.595 304.414,73.549C302.562,75.503 299.935,76.48 296.533,76.48ZM318.303,61.527L318.303,75.856L312.833,75.856L312.833,49.856L318.303,49.856L318.303,53.626C318.616,53.088 318.963,52.603 319.343,52.171C320.224,51.17 321.227,50.43 322.351,49.951C323.475,49.471 324.634,49.232 325.83,49.232C327.348,49.232 328.758,49.61 330.061,50.367C331.364,51.123 332.408,52.312 333.193,53.933C333.978,55.554 334.37,57.67 334.37,60.281L334.37,75.856L328.9,75.856L328.9,61.148C328.9,59.678 328.678,58.488 328.234,57.576C327.79,56.664 327.193,55.992 326.441,55.561C325.69,55.13 324.862,54.915 323.958,54.915C322.993,54.915 322.078,55.153 321.212,55.63C320.346,56.107 319.645,56.83 319.108,57.798C318.571,58.767 318.303,60.009 318.303,61.527ZM352.97,75.403C352.242,75.727 351.486,75.988 350.701,76.185C349.916,76.381 349.076,76.48 348.181,76.48C345.962,76.48 344.258,75.777 343.068,74.373C341.878,72.968 341.283,70.886 341.283,68.127L341.283,55.209L339.789,55.209C339.064,55.209 338.47,54.988 338.007,54.546C337.544,54.104 337.313,53.483 337.313,52.685C337.313,51.988 337.502,51.381 337.88,50.863C338.258,50.346 338.813,49.876 339.547,49.455L346.754,45.151L346.754,49.856L353.912,49.856L353.912,55.209L346.754,55.209L346.754,67.174C346.754,68.633 347.014,69.661 347.535,70.258C348.056,70.855 348.813,71.153 349.805,71.153C350.342,71.153 350.864,71.085 351.372,70.949C351.879,70.813 352.412,70.638 352.97,70.423L352.97,75.403ZM357.989,75.856L357.989,49.752C359.81,50.203 361.631,50.203 363.452,49.752L363.452,75.856L357.989,75.856ZM360.721,45.852C359.622,45.852 358.79,45.54 358.225,44.916C357.66,44.292 357.377,43.477 357.377,42.472C357.377,41.501 357.66,40.704 358.225,40.08C358.79,39.456 359.622,39.144 360.721,39.144C361.851,39.144 362.698,39.456 363.264,40.08C363.829,40.704 364.111,41.501 364.111,42.472C364.111,43.477 363.829,44.292 363.264,44.916C362.698,45.54 361.851,45.852 360.721,45.852ZM375.517,61.527L375.517,75.856L370.047,75.856L370.047,49.856L375.517,49.856L375.517,53.626C375.83,53.088 376.176,52.603 376.557,52.171C377.438,51.17 378.441,50.43 379.564,49.951C380.688,49.471 381.848,49.232 383.043,49.232C384.562,49.232 385.972,49.61 387.275,50.367C388.578,51.123 389.622,52.312 390.406,53.933C391.191,55.554 391.584,57.67 391.584,60.281L391.584,75.856L386.114,75.856L386.114,61.148C386.114,59.678 385.892,58.488 385.448,57.576C385.004,56.664 384.406,55.992 383.655,55.561C382.903,55.13 382.076,54.915 381.171,54.915C380.207,54.915 379.292,55.153 378.426,55.63C377.56,56.107 376.858,56.83 376.322,57.798C375.785,58.767 375.517,60.009 375.517,61.527ZM407.281,66.055C405.741,66.055 404.559,66.178 403.735,66.423C402.911,66.669 402.347,66.991 402.041,67.39C401.736,67.788 401.583,68.215 401.583,68.669C401.583,69.302 401.829,69.757 402.323,70.033C402.816,70.31 403.65,70.448 404.822,70.448L411.268,70.448C414.066,70.448 416.251,71.034 417.823,72.207C419.395,73.379 420.181,75.301 420.181,77.973C420.181,80.885 419.166,83.098 417.134,84.611C415.102,86.123 411.947,86.88 407.668,86.88C405.583,86.88 403.808,86.702 402.344,86.347C400.879,85.992 399.732,85.523 398.902,84.94C398.342,84.587 397.917,84.192 397.627,83.755C397.337,83.319 397.191,82.815 397.191,82.244C397.191,81.598 397.376,81.079 397.744,80.688C398.112,80.297 398.635,80.101 399.314,80.101C399.845,80.101 400.364,80.216 400.872,80.444C401.38,80.673 401.949,80.945 402.58,81.259C403.211,81.573 403.989,81.845 404.914,82.073C405.838,82.302 406.993,82.416 408.377,82.416C410.286,82.416 411.823,82.115 412.989,81.513C414.155,80.91 414.738,79.952 414.738,78.639C414.738,77.816 414.433,77.143 413.823,76.618C413.214,76.093 412.05,75.831 410.334,75.831L403.79,75.831C402.019,75.831 400.603,75.594 399.542,75.119C398.481,74.645 397.71,73.998 397.229,73.178C396.748,72.358 396.508,71.437 396.508,70.415C396.508,68.787 397.016,67.462 398.033,66.441C398.822,65.648 399.845,65.098 401.102,64.791C400.624,64.549 400.178,64.271 399.766,63.959C397.919,62.562 396.996,60.52 396.996,57.833C396.996,55.99 397.441,54.428 398.33,53.149C399.22,51.869 400.483,50.896 402.119,50.23C403.756,49.565 405.675,49.232 407.877,49.232C410.134,49.232 412.346,49.336 414.512,49.544C416.678,49.752 418.87,49.856 421.086,49.856L421.086,55.023C419.792,55.023 418.594,54.953 417.492,54.813C417.405,54.802 417.318,54.79 417.229,54.779C417.312,54.956 417.387,55.138 417.456,55.326C417.752,56.134 417.901,57.039 417.901,58.041C417.901,59.736 417.481,61.184 416.642,62.385C415.803,63.585 414.594,64.497 413.014,65.12C411.435,65.743 409.523,66.055 407.281,66.055ZM407.493,62.303C408.994,62.303 410.208,61.894 411.134,61.077C412.061,60.26 412.525,59.094 412.525,57.577C412.525,56.07 412.076,54.927 411.18,54.15C410.283,53.373 409.105,52.984 407.644,52.984C406.164,52.984 404.96,53.389 404.033,54.2C403.106,55.011 402.643,56.181 402.643,57.71C402.643,59.205 403.091,60.344 403.988,61.127C404.885,61.911 406.053,62.303 407.493,62.303Z"/>
            </g>
            <g transform="matrix(3.281957,0,0,2.790128,22667.526661,26046.598892)">
                <path d="M0,13.153C2.718,12.44 5.472,12.078 8.186,12.078C18.05,12.079 26.213,16.449 29.768,20.813C29.768,20.813 34.645,13.392 37.184,5.037C39.36,-2.118 39.218,-10.207 39.218,-10.207L-1.21,7.937C-1.207,8.072 -1.19,8.203 -1.19,8.339C-1.19,10.202 -1.528,11.982 -2.119,13.642C-1.445,13.504 -0.752,13.35 0,13.153" style="fill-rule:nonzero;"/>
            </g>
            <g transform="matrix(3.096508,0,0,2.632469,22748.709386,26072.531704)">
                <path d="M0,15.665C0.606,15.658 0.878,14.905 0.425,14.504C-6.741,8.159 -17.052,5.358 -26.375,7.945C-44.419,12.809 -47.401,0.079 -63.662,-0.01C-73.954,-0.066 -84.184,5.224 -88.41,14.747C-88.602,15.179 -88.277,15.666 -87.804,15.665C-81.091,15.646 -67.906,15.685 -62.035,15.668L-62.036,15.668L-37.902,15.668L-37.903,15.668L-25.896,15.668L-25.897,15.668C-25.902,15.621 -5.885,15.731 0,15.665" style="fill-rule:nonzero;"/>
            </g>
            <g transform="matrix(3.281957,0,0,2.790128,22541.74533,26063.932281)">
                <path d="M0,-1.077L-34.434,-16.512C-34.434,-16.512 -35.692,-10.245 -30.966,2.904C-28.357,10.165 -24.736,14.6 -24.736,14.6C-20.54,3.315 -6.742,-0.748 0,-1.077" style="fill-rule:nonzero;"/>
            </g>
            <g transform="matrix(2.960618,-1.204078,-1.416327,-2.516944,22695.188677,26068.157919)">
                <path d="M40.426,33.681C40.426,33.681 41.547,27.715 40.941,21.889C40.281,15.546 37.9,8.566 37.9,8.566L-7.528,8.399C-7.383,9.512 -7.366,10.626 -7.457,11.727L40.426,33.681Z"/>
            </g>
            <g transform="matrix(3.281957,0,0,2.790128,22679.103436,26037.745538)">
                <path d="M-0.297,-59.351L-13.722,-2.757C-12.239,-2.046 -10.886,-1.115 -9.702,0L24.164,-40.992C24.164,-40.992 21.018,-45.878 14.671,-50.901C7.703,-56.416 -0.297,-59.351 -0.297,-59.351Z" style="fill-rule:nonzero;"/>
            </g>
            <g transform="matrix(3.281957,0,0,2.790128,22611.655281,25862.027764)">
                <path d="M0,58.657C0.883,58.657 1.743,58.747 2.587,58.886L15.133,1.848C15.133,1.848 4.888,-0.228 0.253,-0.228C-4.744,-0.228 -14.847,1.848 -14.847,1.848L-2.12,58.815C-1.425,58.722 -0.721,58.657 0,58.657" style="fill-rule:nonzero;"/>
            </g>
            <g transform="matrix(3.281957,0,0,2.790128,22590.677668,25868.855486)">
                <path d="M0,57.564L-13.284,1.181C-13.284,1.181 -21.812,4.014 -29.533,10.817C-34.211,14.94 -38.162,19.535 -38.162,19.535L-4.136,60.24C-2.911,59.147 -1.522,58.237 0,57.564" style="fill-rule:nonzero;"/>
            </g>
            <g transform="matrix(-2.103995,-2.141352,-2.518819,1.788693,22526.614324,25935.308143)">
                <path d="M-38.597,15.973L13.828,16.219C13.828,16.219 10.855,23.928 8.76,27.517C6.655,31.124 1.009,37.63 1.009,37.63L-40.095,19.235C-39.467,18.2 -38.968,17.105 -38.597,15.973" style="fill-rule:nonzero;"/>
            </g>
        </g>
    </g>
</svg>
